<?xml version="1.0" encoding="UTF-8"?><svg id="Warstwa_1" xmlns="http://www.w3.org/2000/svg" viewBox="0 0 50 50"><defs><style>.cls-1{fill:#1d1d1b;}</style></defs><path class="cls-1" d="m40.68,10.75c.35,0,.64.25.7.58v.13s.01,2.85.01,2.85c0,.2-.08.37-.21.5l-2.64,2.64v20.37h2.14c.39,0,.71.32.71.71,0,.35-.25.64-.58.7h-.13s-31.36.01-31.36.01c-.39,0-.71-.32-.71-.71,0-.35.25-.64.58-.7h.13s2.14-.01,2.14-.01v-20.37l-2.64-2.64c-.1-.1-.18-.24-.2-.39v-.11s-.01-2.85-.01-2.85c0-.35.25-.64.58-.7h.13s31.36-.01,31.36-.01ZM14.31,29.28h-1.43v8.55h24.23v-8.55h-1.43v7.13s-9.97,0-9.97,0v-7.13h-1.42v7.13h-9.98v-7.13Zm8.55,0h-7.13v5.7h7.13v-5.7Zm11.4,0h-7.13v5.7h7.13v-5.7Zm2.85-2.85H12.89v1.43h24.23v-1.43Zm0-2.85H12.89v1.43h24.23v-1.43Zm-9.38-1.42h9.38v-1.43H12.89v1.43h14.85m9.38-4.28H12.89v1.43h24.23v-1.43Zm.42-1.42l1.42-1.43H11.04l1.42,1.43h25.07Zm-26.07-4.28h-1.43v1.43h1.43v-1.43Zm25.65,0H12.89v1.43h24.23v-1.43Zm2.85,0h-1.43v1.43h1.43v-1.43Z"/></svg>