<?xml version="1.0" encoding="UTF-8"?><svg id="Warstwa_1" xmlns="http://www.w3.org/2000/svg" viewBox="0 0 50 50"><path d="m19.45,21.58c-1.15,0-2.08.93-2.08,2.08,0,.29.23.52.52.52s.52-.23.52-.52c0-.57.47-1.04,1.04-1.04s1.04.47,1.04,1.04-.47,1.04-1.04,1.04H7.53c-.29,0-.52.23-.52.52s.23.52.52.52h11.92c1.15,0,2.08-.93,2.08-2.08s-.93-2.08-2.08-2.08"/><path d="m7.51,23.35h7.09c1.2,0,2.18-.98,2.18-2.18s-.98-2.18-2.18-2.18-2.18.98-2.18,2.18c0,.3.24.54.55.54s.55-.24.55-.54c0-.6.49-1.09,1.09-1.09s1.09.49,1.09,1.09-.49,1.09-1.09,1.09h-7.09c-.3,0-.55.24-.55.54s.24.55.55.55"/><path d="m14.63,26.94h-7.12c-.3,0-.55.23-.55.51s.25.51.55.51h7.12c.6,0,1.1.46,1.1,1.02s-.49,1.02-1.1,1.02-1.1-.45-1.1-1.02c0-.28-.24-.51-.55-.51s-.55.23-.55.51c0,1.12.98,2.03,2.19,2.03s2.19-.91,2.19-2.03-.98-2.03-2.19-2.03"/><path d="m43.04,23.37c0,1.85-1.52,3.38-3.38,3.38h-8.38c-1.39,0-2.54-1.15-2.54-2.54s1.14-2.51,2.54-2.51h.04c.17-.86.87-1.53,1.75-1.65.37-1.48,1.71-2.56,3.24-2.56s2.86,1.07,3.23,2.54c.04,0,.08,0,.12,0,1.86,0,3.38,1.5,3.38,3.35"/><path d="m34.57,29.56c0,.54-.44.99-.99.99s-.99-.44-.99-.99c0-.4.49-1.17.72-1.5.06-.09.16-.14.27-.14s.21.05.27.14c.23.33.72,1.1.72,1.5"/><path d="m37.2,31.54c0,.54-.44.99-.99.99s-.99-.44-.99-.99c0-.4.49-1.17.72-1.5.06-.09.16-.14.27-.14s.21.05.27.14c.23.33.72,1.1.72,1.5"/><path d="m39.84,29.56c0,.54-.44.99-.99.99s-.99-.44-.99-.99c0-.4.49-1.17.72-1.5.06-.09.16-.14.27-.14s.21.05.27.14c.23.33.72,1.1.72,1.5"/><rect x="24.35" y="8.98" width="1.56" height="32.04"/></svg>