<?xml version="1.0" encoding="UTF-8"?><svg id="Warstwa_1" xmlns="http://www.w3.org/2000/svg" viewBox="0 0 50 50"><defs><style>.cls-1{fill:#1d1d1b;}</style></defs><path class="cls-1" d="m25.57,34.41v-1.45h1.81v1.35l-2.38,1.99-.13.12-.12.14c-.17.24-.27.54-.27.85v1.35h-1.45v-1.53s-.05-.18-.05-.18c-.07-.29-.24-.56-.47-.75l-2.38-1.99v-1.35h1.81v1.45h3.63Zm.36-5.08v2.18h-4.35v-2.31c-.07-.34-.37-.6-.72-.6-.4,0-.73.32-.73.73v2.18h-.85c-.34.07-.6.37-.6.73v2.55c.04.17.13.32.26.43l2.64,2.2v2.21c.07.34.37.6.73.6h3.03c.34-.07.6-.37.6-.73v-2.08l2.64-2.2.09-.09c.11-.13.17-.3.17-.47v-2.55c-.07-.34-.37-.59-.72-.59h-.73v-2.31c-.07-.34-.37-.6-.72-.6-.4,0-.73.32-.73.73m-6.53-10.15c0,.8.65,1.45,1.45,1.45s1.45-.65,1.45-1.45-.65-1.45-1.45-1.45-1.45.65-1.45,1.45m5.8,0c0,.8.65,1.45,1.45,1.45s1.45-.65,1.45-1.45-.65-1.45-1.45-1.45-1.45.65-1.45,1.45m-6.53,0c0-2.8,2.27-5.08,5.08-5.08s5.08,2.27,5.08,5.08-2.27,5.08-5.08,5.08-5.08-2.27-5.08-5.08m-1.45,0c0,3.61,2.92,6.53,6.53,6.53s6.53-2.92,6.53-6.53-2.92-6.53-6.53-6.53-6.53,2.92-6.53,6.53m-.73-7.25h14.51v14.51h-14.51v-14.51Zm-.73-1.45c-.4,0-.73.33-.73.73v15.96c0,.4.33.73.73.73h15.96c.4,0,.73-.32.73-.73v-15.96c0-.4-.32-.73-.73-.73h-15.96Z"/><path class="cls-1" d="m30.57,31.96v1.96h.29c.24,0,.42-.08.54-.23.12-.16.19-.38.19-.67v-.15c0-.3-.06-.52-.19-.68-.12-.15-.3-.23-.54-.23h-.3Zm-.6,2.44v-2.93h.9c.26,0,.49.06.69.17.2.12.36.28.48.5.12.22.17.46.17.73v.13c0,.27-.06.52-.17.73-.11.21-.27.38-.47.49-.21.12-.44.18-.69.18h-.91Z"/><path class="cls-1" d="m34.95,33.42c-.02.32-.14.56-.35.75-.21.18-.49.27-.83.27-.38,0-.67-.13-.89-.38-.22-.25-.32-.6-.32-1.04v-.18c0-.28.05-.53.15-.75.1-.21.24-.38.43-.49.18-.12.4-.17.64-.17.34,0,.61.09.82.27.21.18.32.44.36.76h-.6c-.01-.19-.07-.33-.16-.41-.09-.08-.23-.13-.41-.13-.2,0-.35.07-.45.22-.1.14-.15.37-.16.67v.22c0,.32.05.55.14.69.1.15.25.22.45.22.19,0,.33-.04.42-.13.09-.08.14-.22.16-.4h.6Z"/></svg>