<?xml version="1.0" encoding="UTF-8"?><svg id="Warstwa_1" xmlns="http://www.w3.org/2000/svg" viewBox="0 0 50 50"><defs><style>.cls-1{fill:#1d1d1b;}</style></defs><path class="cls-1" d="m34.78,39.34c-.41.78-1.18,1.27-2,1.27h-3.61c-1.27,0-2.3-1.13-2.3-2.51,0-3.34,0-7.08,0-9.2h0c0-.24.17-.43.39-.43.2,0,.37.19.37.43v3.88c0,.41.33.75.74.75s.75-.33.75-.75v-6.58c0-.25.16-.44.36-.44s.36.2.36.44v6.58c0,.41.33.75.75.75s.75-.33.75-.75v-7.56c0-.24.17-.44.4-.44.2,0,.36.2.36.44v7.55c0,.2.08.39.22.53.14.14.33.21.52.21h0c.2,0,.39-.08.53-.22.14-.14.22-.33.21-.53v-4.69s0-1.15,0-1.15c0-.24.17-.43.37-.43s.36.2.36.44v7.55c0,.31.21.59.5.7.3.11.63.01.83-.23l.91-1.1c.15-.19.38-.31.62-.33.2-.01.39.04.55.15l-2.94,5.65Zm4.05-6.67c-.47-.44-1.11-.67-1.75-.62-.46.03-.89.2-1.25.47v-5.58c0-1.07-.84-1.94-1.87-1.94-.13,0-.25.02-.38.04-.08-.99-.88-1.76-1.86-1.76-.71,0-1.35.43-1.66,1.07-.18-.06-.37-.09-.57-.09-1.02,0-1.85.87-1.85,1.93v.82c-.13-.02-.26-.04-.4-.04-1.02,0-1.86.86-1.86,1.93,0,2.12,0,5.86,0,9.2,0,2.21,1.71,4,3.79,4h3.61c1.38,0,2.66-.79,3.32-2.07l3.22-6.18c.16-.31.08-.7-.18-.92l-.31-.26Z"/><path class="cls-1" d="m36.02,19.92l-.52-.2-.49,1.26.52.2c2.11.83,3.78,2.52,4.58,4.64l1.27-.47c-.93-2.49-2.88-4.47-5.35-5.43"/><path class="cls-1" d="m37.55,26.24l1.27-.47c-.6-1.62-1.88-2.91-3.49-3.54l-.32-.13-.49,1.26.32.13c1.25.49,2.24,1.49,2.71,2.75"/><path class="cls-1" d="m17.33,10.77c1.01,0,1.82.82,1.82,1.82,0,.85-.58,1.56-1.37,1.77v1.91c1.17.15,2.17.84,2.72,1.83l2.36-1.36c-.04-.16-.07-.33-.07-.5,0-1.01.82-1.82,1.82-1.82s1.82.82,1.82,1.82-.82,1.82-1.82,1.82c-.51,0-.97-.21-1.3-.54l-2.48,1.42c.08.3.12.62.12.94,0,.62-.16,1.21-.43,1.72l2.78,1.56c.33-.34.79-.55,1.3-.55,1.01,0,1.82.82,1.82,1.83s-.82,1.82-1.82,1.82-1.82-.82-1.82-1.82c0-.17.02-.33.07-.49l-2.85-1.61c-.57.62-1.35,1.05-2.23,1.16v1.91c.79.2,1.37.92,1.37,1.77,0,1.01-.82,1.82-1.82,1.82s-1.82-.82-1.82-1.82c0-.85.58-1.56,1.37-1.77v-1.91c-.9-.11-1.69-.55-2.26-1.19l-2.79,1.76c.02.12.04.24.04.36,0,1.01-.82,1.82-1.82,1.82s-1.82-.82-1.82-1.82.82-1.83,1.82-1.83c.56,0,1.05.25,1.39.64l2.67-1.69c-.26-.51-.41-1.08-.41-1.68,0-.4.06-.79.18-1.14l-2.52-1.24c-.33.34-.8.56-1.31.56-1.01,0-1.82-.82-1.82-1.82s.82-1.82,1.82-1.82,1.82.82,1.82,1.82c0,.16-.02.32-.06.47l2.46,1.21c.57-.89,1.52-1.52,2.62-1.65v-1.91c-.79-.2-1.37-.91-1.37-1.77,0-1.01.82-1.82,1.82-1.82m0,15.51c-.5,0-.91.41-.91.91s.41.91.91.91.91-.41.91-.91-.41-.91-.91-.91m-7.3-2.74c-.5,0-.91.41-.91.91s.41.91.91.91.91-.41.91-.91-.41-.91-.91-.91m14.6,0c-.5,0-.91.41-.91.91s.41.91.91.91.91-.41.91-.91-.41-.91-.91-.91m-7.3-5.48c-1.01,0-1.82.82-1.82,1.83s.82,1.82,1.82,1.82,1.82-.82,1.82-1.82-.82-1.83-1.82-1.83m-7.3-2.74c-.5,0-.91.41-.91.91s.41.91.91.91.91-.41.91-.91-.41-.91-.91-.91m14.6,0c-.5,0-.91.41-.91.91s.41.91.91.91.91-.41.91-.91-.41-.91-.91-.91m-7.3-3.65c-.5,0-.91.41-.91.91s.41.91.91.91.91-.41.91-.91-.41-.91-.91-.91"/></svg>