<?xml version="1.0" encoding="UTF-8"?><svg id="Warstwa_1" xmlns="http://www.w3.org/2000/svg" viewBox="0 0 50 50"><path d="m30.98,37.72h-1.71v-5.67h-8.54v5.67h-1.71v-5.67h-2.99c-.71,0-1.28-.57-1.28-1.28v-.06c0-.71.58-1.28,1.28-1.28h1.28v-10.65c0-4.24,3.44-7.69,7.68-7.69s7.69,3.44,7.69,7.69v10.65h1.28c.71,0,1.28.57,1.28,1.28v.06c0,.71-.57,1.28-1.28,1.28h-2.99v5.67Zm-5.98-24.91c-3.19,0-5.8,2.5-5.97,5.65v.33s0,9.81,0,9.81h1.71v-5.12h8.54v5.12h1.71v-9.81c0-3.19-2.5-5.8-5.65-5.97h-.33Zm-2.56,12.93v2.85h4.68l-4.68-2.85Zm5.13-.57h-2.78l2.78,1.69v-1.69Zm-3.42-9.62c2.73,0,4.96,2.18,5.11,4.91v.31s-1.7,0-1.7,0c0-1.85-1.4-3.37-3.16-3.5h-.25v-1.72Z"/></svg>