<?xml version="1.0" encoding="UTF-8"?><svg id="Warstwa_1" xmlns="http://www.w3.org/2000/svg" viewBox="0 0 46.69 45.92"><defs><style>.cls-1{fill:#2699d6;}.cls-1,.cls-2{stroke-width:0px;}.cls-2{fill:#fff;}</style></defs><path class="cls-1" d="m40.05,22.72c0,9.21-7.47,16.68-16.68,16.68S6.68,31.93,6.68,22.72,14.15,6.04,23.37,6.04s16.68,7.47,16.68,16.68"/><path class="cls-2" d="m23.37,34.81c-5,0-10.31-1.46-10.31-4.16,0-1.2,1.14-2.29,3.2-3.05.26-.1.55.04.64.29.1.26-.04.55-.29.64-1.6.59-2.55,1.38-2.55,2.12,0,1.49,3.83,3.16,9.31,3.16s9.31-1.66,9.31-3.16c0-.63-.72-1.32-1.97-1.88-.25-.11-.36-.41-.25-.66.11-.25.41-.37.66-.25,2.11.95,2.56,2.04,2.56,2.79,0,2.7-5.31,4.16-10.31,4.16Z"/><path class="cls-2" d="m23.37,32.58c-3.37,0-6.99-.76-6.99-2.42,0-.56.41-1.05,1.21-1.45.25-.12.55-.02.67.23.12.25.02.55-.23.67-.52.25-.65.47-.65.55,0,.43,2.04,1.42,5.99,1.42s5.99-1,5.99-1.42c0-.09-.19-.4-1.08-.73-.26-.1-.39-.39-.29-.64.1-.26.39-.39.64-.29,1.15.43,1.73.99,1.73,1.67,0,1.67-3.62,2.42-6.99,2.42Z"/><path class="cls-2" d="m23.37,29.35c-3.05,0-5.53-2.48-5.53-5.53s4.97-7.94,5.18-8.15c.2-.19.51-.19.71,0,.21.21,5.18,5.2,5.18,8.15s-2.48,5.53-5.53,5.53Zm0-12.62c-1.53,1.6-4.53,5.14-4.53,7.08,0,2.5,2.03,4.53,4.53,4.53s4.53-2.03,4.53-4.53c0-1.95-3-5.48-4.53-7.08Z"/><path class="cls-2" d="m11.9,16.4c-.27,0-.49-.21-.5-.48-.01-.28.2-.51.48-.52.86-.04,1.66-.44,2.2-1.12.55-.68.77-1.58.61-2.44-.05-.27.13-.53.4-.58.28-.05.53.13.58.4.21,1.16-.08,2.34-.82,3.25-.72.9-1.79,1.44-2.93,1.49h-.02Z"/><path class="cls-2" d="m12.48,18.5c-.25,0-.46-.18-.49-.43-.04-.27.15-.53.43-.56,1.32-.18,2.5-.85,3.33-1.88.85-1.05,1.24-2.37,1.11-3.71-.03-.28.18-.52.45-.55.28-.01.52.17.55.45.15,1.6-.32,3.18-1.33,4.43-.99,1.23-2.4,2.03-3.98,2.24-.02,0-.05,0-.07,0Z"/><path class="cls-2" d="m13.11,20.79c-.24,0-.45-.17-.49-.41-.05-.27.13-.53.4-.58,1.8-.32,3.41-1.28,4.55-2.7,1.15-1.43,1.74-3.23,1.65-5.08-.01-.28.2-.51.48-.52.32-.03.51.2.52.48.1,2.09-.57,4.13-1.87,5.75-1.29,1.6-3.12,2.69-5.15,3.05-.03,0-.06,0-.09,0Z"/></svg>