<?xml version="1.0" encoding="utf-8"?>
<!-- Generator: Adobe Illustrator 28.1.0, SVG Export Plug-In . SVG Version: 6.00 Build 0)  -->
<svg version="1.1" id="Warstwa_1" xmlns="http://www.w3.org/2000/svg" xmlns:xlink="http://www.w3.org/1999/xlink" x="0px" y="0px"
	 viewBox="0 0 46.7 45.9" style="enable-background:new 0 0 46.7 45.9;" xml:space="preserve">
<style type="text/css">
	.st0{display:none;fill:#2699D6;}
</style>
<path class="st0" d="M40,22.7c0,9.2-7.5,16.7-16.7,16.7S6.7,31.9,6.7,22.7S14.1,6,23.4,6S40.1,13.5,40,22.7"/>
<path d="M24.9,45.7c-9.6,0-19.9-2.8-19.9-8c0-2.3,2.2-4.4,6.2-5.9c0.5-0.2,1.1,0.1,1.2,0.6c0.2,0.5-0.1,1.1-0.6,1.2
	C8.8,34.7,7,36.2,7,37.7c0,2.9,7.4,6.1,18,6.1s18-3.2,18-6.1c0-1.2-1.4-2.5-3.8-3.6c-0.5-0.2-0.7-0.8-0.5-1.3
	c0.2-0.5,0.8-0.7,1.3-0.5c4.1,1.8,4.9,3.9,4.9,5.4C44.8,42.9,34.6,45.7,24.9,45.7z"/>
<path d="M24.9,41.4c-6.5,0-13.5-1.5-13.5-4.7c0-1.1,0.8-2,2.3-2.8c0.5-0.2,1.1,0,1.3,0.4s0,1.1-0.4,1.3c-1,0.5-1.3,0.9-1.3,1.1
	c0,0.8,3.9,2.7,11.6,2.7s11.6-1.9,11.6-2.7c0-0.2-0.4-0.8-2.1-1.4c-0.5-0.2-0.8-0.8-0.6-1.2c0.2-0.5,0.8-0.8,1.2-0.6
	c2.2,0.8,3.3,1.9,3.3,3.2C38.4,40,31.4,41.4,24.9,41.4L24.9,41.4z"/>
<path d="M24.9,35.1c-5.9,0-10.7-4.8-10.7-10.7s9.6-15.3,10-15.7c0.4-0.4,1-0.4,1.4,0c0.4,0.4,10,10,10,15.7S30.8,35.1,24.9,35.1
	L24.9,35.1z M24.9,10.8c-3,3.1-8.7,9.9-8.7,13.7c0,4.8,3.9,8.7,8.7,8.7s8.7-3.9,8.7-8.7C33.7,20.7,27.9,13.9,24.9,10.8z"/>
<path d="M2.8,10.2c-0.5,0-0.9-0.4-1-0.9c0-0.5,0.4-1,0.9-1C4.4,8.2,6,7.4,7,6.1c1.1-1.3,1.5-3,1.2-4.7C8.1,0.9,8.5,0.4,9,0.3
	c0.5-0.1,1,0.3,1.1,0.8c0.4,2.2-0.2,4.5-1.6,6.3C7.1,9,5.1,10.1,2.8,10.2C2.9,10.2,2.8,10.2,2.8,10.2z"/>
<path d="M3.9,14.2c-0.5,0-0.9-0.3-0.9-0.8c-0.1-0.5,0.3-1,0.8-1.1c2.5-0.3,4.8-1.6,6.4-3.6c1.6-2,2.4-4.6,2.1-7.2
	c-0.1-0.5,0.3-1,0.9-1.1c0.5,0,1,0.3,1.1,0.9c0.3,3.1-0.6,6.1-2.6,8.5c-1.9,2.4-4.6,3.9-7.7,4.3C4,14.2,4,14.2,3.9,14.2L3.9,14.2z"
	/>
<path d="M5.2,18.6c-0.5,0-0.9-0.3-0.9-0.8c-0.1-0.5,0.3-1,0.8-1.1c3.5-0.6,6.6-2.5,8.8-5.2c2.2-2.8,3.4-6.2,3.2-9.8
	c0-0.5,0.4-1,0.9-1c0.6-0.1,1,0.4,1,0.9c0.2,4-1.1,8-3.6,11.1c-2.5,3.1-6,5.2-9.9,5.9C5.3,18.6,5.2,18.6,5.2,18.6L5.2,18.6z"/>
</svg>
