<?xml version="1.0" encoding="UTF-8"?><svg id="Warstwa_1" xmlns="http://www.w3.org/2000/svg" viewBox="0 0 50 50"><path d="m37.69,11.42c-1.65,0-3.05,1.02-3.58,2.48h-3.77c-.06-.43-.16-.82-.29-1.14-.4-1.12-1.01-1.34-1.44-1.34-1.65,0-3.04,1.02-3.6,2.48h-4c-.54-1.46-1.95-2.48-3.58-2.48-2.11,0-3.84,1.71-3.84,3.84s1.73,3.82,3.84,3.82c1.63,0,3.04-1.02,3.58-2.46h4c.27.67.7,1.25,1.26,1.68v4.56h-.61c-.5,0-.9.4-.9.9v14.73c0,.48.4.88.9.88h3.87c.5,0,.9-.4.9-.88v-14.73c0-.5-.4-.9-.9-.9h-.62v-3.81c.38-.11.82-.45,1.14-1.3.13-.34.22-.72.29-1.14h3.77c.53,1.46,1.93,2.49,3.58,2.49,2.13,0,3.85-1.73,3.85-3.85s-1.73-3.84-3.85-3.84Zm-20.32,6.11c-1.26,0-2.27-1.01-2.27-2.27s1.01-2.27,2.27-2.27,2.27,1.02,2.27,2.27-1.02,2.27-2.27,2.27Zm11.5.56c-.5.11-1.57-1.46-1.42-3.12.1-1.33.99-2.65,1.46-2.54.88.21.83,5.48-.03,5.66Z"/><path d="m19.73,24.02c-1.3,0-2.36,1.06-2.36,2.36,0,.32.27.59.59.59s.59-.27.59-.59c0-.65.53-1.18,1.18-1.18s1.18.53,1.18,1.18-.53,1.18-1.18,1.18H6.2c-.32,0-.59.26-.59.59s.26.59.59.59h13.53c1.3,0,2.36-1.06,2.36-2.36s-1.06-2.36-2.36-2.36h0Z"/><path d="m6.17,26.03h8.04c1.36,0,2.47-1.11,2.47-2.47s-1.11-2.48-2.47-2.48-2.48,1.11-2.48,2.48c0,.34.28.62.62.62s.62-.28.62-.62c0-.68.55-1.24,1.24-1.24s1.24.55,1.24,1.24-.56,1.24-1.24,1.24H6.17c-.34,0-.62.28-.62.62s.28.62.62.62h0Z"/><path d="m14.25,30.1H6.18c-.34,0-.62.26-.62.58s.28.58.62.58h8.07c.69,0,1.24.52,1.24,1.15s-.56,1.15-1.24,1.15-1.24-.52-1.24-1.15c0-.32-.28-.58-.62-.58s-.62.26-.62.58c0,1.27,1.11,2.31,2.48,2.31s2.48-1.04,2.48-2.31-1.11-2.31-2.48-2.31h0Z"/><g><path d="m31.74,19.66c-.16-.16-.38-.22-.66-.22h-.96v2.49h.43v-.93h.51c.29,0,.53-.06.69-.21.16-.13.24-.32.24-.56s-.1-.43-.26-.58Zm-.3.88c-.08.08-.21.11-.35.11h-.53v-.86h.53c.14,0,.27.05.35.13.08.08.11.18.11.32,0,.13-.03.24-.11.3Z"/><path d="m33.69,20.86c.14-.05.26-.14.34-.26.08-.11.13-.26.13-.42,0-.24-.08-.43-.24-.56-.16-.13-.38-.19-.67-.19h-.88v2.49h.43v-.96h.5l.5.96h.46v-.03l-.56-1.04Zm-.45-.24h-.45v-.83h.46c.14,0,.27.03.34.11.08.06.11.18.11.3s-.03.22-.11.3c-.08.08-.21.11-.35.11Z"/><path d="m36.43,19.96c-.1-.18-.21-.32-.37-.42-.16-.1-.34-.14-.54-.14s-.38.05-.54.14c-.16.1-.27.24-.37.43-.08.18-.13.4-.13.64v.14c0,.24.05.45.14.62.08.19.19.34.35.43.16.1.35.14.54.14.21,0,.38-.05.54-.14.16-.1.29-.24.37-.43.08-.18.13-.4.13-.64v-.14c0-.24-.05-.45-.13-.64Zm-.3.78c0,.29-.06.5-.16.64-.11.14-.26.22-.45.22s-.34-.08-.45-.22c-.1-.16-.16-.37-.16-.64v-.14c.02-.27.06-.48.18-.62.1-.14.24-.22.43-.22s.34.08.45.22c.1.14.16.37.16.64v.13Z"/></g></svg>