<?xml version="1.0" encoding="UTF-8"?><svg id="Warstwa_1" xmlns="http://www.w3.org/2000/svg" viewBox="0 0 50 50"><defs><style>.cls-1{fill:#1d1d1b;}</style></defs><path class="cls-1" d="m33.05,9.56v4.26c0,.79-.64,1.42-1.42,1.42-.7,0-1.28-.5-1.4-1.16l-.02-.26v-1.42h-14.19v25.55h14.19v-1.42c0-.7.5-1.28,1.16-1.4l.25-.02c.7,0,1.28.5,1.4,1.16l.02.25v4.26H13.17V9.56h19.87Zm1.83,20.05l.32.43c1.59,2.3,4.67,2.97,7.05,1.6l.48-.31,2.26-1.63c.64-.46,1.52-.32,1.98.32.41.56.34,1.33-.13,1.81l-.19.17-2.4,1.73c-3.58,2.48-8.43,1.71-11.08-1.65l-.31-.42c-1.71-2.47-4.95-3.3-7.61-2.02l-.42.22-3.84,2.22c-.68.39-1.55.16-1.94-.52-.35-.6-.2-1.36.31-1.79l.21-.15,3.85-2.22c3.86-2.23,8.75-1.26,11.47,2.22m0-8.52l.32.43c1.59,2.3,4.67,2.96,7.05,1.6l.48-.31,2.26-1.63c.64-.46,1.52-.32,1.98.32.41.56.34,1.33-.13,1.81l-.19.17-2.4,1.73c-3.58,2.47-8.43,1.71-11.08-1.66l-.31-.42c-1.71-2.47-4.95-3.3-7.61-2.02l-.42.22-3.84,2.22c-.68.39-1.55.16-1.94-.52-.35-.6-.2-1.36.31-1.79l.21-.15,3.85-2.22c3.86-2.23,8.75-1.25,11.47,2.22"/></svg>