<?xml version="1.0" encoding="UTF-8"?><svg id="Warstwa_1" xmlns="http://www.w3.org/2000/svg" viewBox="0 0 50 50"><defs><style>.cls-1{fill:#1d1d1b;}</style></defs><path class="cls-1" d="m21.96,11.02c1.68,0,3.04,1.36,3.04,3.04v14.9s.16.11.16.11c1.33.96,2.18,2.48,2.26,4.16v.28c0,3.02-2.44,5.47-5.46,5.47s-5.47-2.45-5.47-5.47c0-1.79.87-3.42,2.27-4.44l.16-.11v-14.9c0-1.61,1.25-2.93,2.84-3.03h.2Zm0,1.21c-1.01,0-1.82.82-1.82,1.82v15.58l-.3.17c-1.31.76-2.13,2.15-2.13,3.68,0,2.35,1.9,4.25,4.25,4.25s4.25-1.9,4.25-4.25c0-1.54-.82-2.93-2.13-3.68l-.3-.18v-15.58c0-1.01-.82-1.82-1.82-1.82m0,3.65c.3,0,.55.21.6.5v.11s.01,14.04.01,14.04c1.39.28,2.43,1.51,2.43,2.98,0,1.68-1.36,3.04-3.04,3.04s-3.04-1.36-3.04-3.04c0-1.47,1.04-2.7,2.43-2.98v-14.04c0-.34.27-.61.61-.61m0,15.8c-1.01,0-1.82.82-1.82,1.82s.82,1.82,1.82,1.82,1.82-.82,1.82-1.82-.82-1.82-1.82-1.82m9.11-3.65c.34,0,.61.27.61.61,0,.3-.21.55-.5.6h-.11s-3.04.01-3.04.01c-.34,0-.61-.27-.61-.61,0-.3.21-.55.5-.6h.11s3.04-.01,3.04-.01Zm1.82-2.43c.34,0,.61.27.61.61,0,.3-.21.55-.5.6h-.11s-4.86.01-4.86.01c-.34,0-.61-.27-.61-.61,0-.3.21-.55.5-.6h.11s4.86-.01,4.86-.01Zm-1.82-2.43c.34,0,.61.27.61.61,0,.3-.21.55-.5.6h-.11s-3.04,0-3.04,0c-.34,0-.61-.27-.61-.61,0-.3.21-.55.5-.6h.11s3.04,0,3.04,0Zm0-2.43c.34,0,.61.27.61.61,0,.3-.21.55-.5.6h-.11s-3.04,0-3.04,0c-.34,0-.61-.27-.61-.61,0-.3.21-.55.5-.6h.11s3.04,0,3.04,0Zm0-2.43c.34,0,.61.27.61.61,0,.3-.21.55-.5.6h-.11s-3.04.01-3.04.01c-.34,0-.61-.27-.61-.61,0-.3.21-.55.5-.6h.11s3.04-.01,3.04-.01Zm1.82-2.43c.34,0,.61.27.61.61,0,.3-.21.55-.5.6h-.11s-4.86.01-4.86.01c-.34,0-.61-.27-.61-.61,0-.3.21-.55.5-.6h.11s4.86-.01,4.86-.01Z"/></svg>