<?xml version="1.0" encoding="UTF-8"?><svg id="Warstwa_1" xmlns="http://www.w3.org/2000/svg" viewBox="0 0 50 50"><defs><style>.cls-1{fill:#1d1d1b;}</style></defs><path class="cls-1" d="m15.49,26.76h6.03v4.58h1.14v-4.41c0-.52.44-.96.96-.96h2.33v-.41h-12.87v-1.21h12.87v-1.21h-12.87v-1.19h12.87v-.34c0-.34.16-.64.42-.8.05-.03.1-.05.15-.07h-13.44v-1.21h20.47v1.11h1.21v-3.88l2.23-2.23c.11-.11.18-.26.18-.42v-2.52c-.05-.28-.31-.49-.6-.49H9.95c-.28.07-.49.31-.49.6v2.41l.02.1c.02.13.08.24.16.33l2.23,2.23v17.22h-1.81l-.11.02c-.28.05-.49.29-.49.59,0,.33.28.6.6.6h9.71v-1.21h-6.69v-7.23h1.21v6.03h5.49v-.49c0-.26.1-.49.28-.65.02-.02.05-.05.07-.07h-4.63v-4.82Zm18.06-8.42H13.08v-1.21h20.47v1.21Zm1.21-6.03h1.21v1.21h-1.21v-1.21Zm-21.68,0h20.47v1.21H13.08v-1.21Zm-2.41,0h1.21v1.21h-1.21v-1.21Zm2.05,3.62l-1.21-1.21h23.6l-1.21,1.21H12.72Z"/><path class="cls-1" d="m43.92,32.15h-2.28v-4.23c0-.33-.24-.57-.57-.57h-2.9v-5.41c0-.31-.23-.55-.55-.57h-9.89c-.31,0-.57.26-.57.57v5.41h-2.9c-.13,0-.24.05-.34.13-.15.08-.23.24-.23.44v4.23h-2.08c-.31,0-.57.26-.57.57v6.22c0,.33.26.57.57.57h22.31c.31,0,.57-.24.57-.57v-6.22c0-.31-.26-.57-.57-.57Zm-6.89-9.64v5.41c0,.31.26.57.57.57h2.9v4.23c0,.26.18.49.42.54.05.03.1.03.15.03h2.28v5.08h-21.17v-5.08h2.08c.33,0,.57-.26.57-.57v-4.23h2.9c.33,0,.57-.26.57-.57v-5.41h8.73Z"/></svg>