<?xml version="1.0" encoding="UTF-8"?><svg id="Warstwa_1" xmlns="http://www.w3.org/2000/svg" viewBox="0 0 50 50"><path d="m22.63,34.94h.43c.13,0,.23-.03.3-.09.07-.06.1-.15.1-.26s-.03-.2-.1-.27c-.07-.07-.16-.1-.28-.1h-.44v.73Zm0,.29v.77h-.36v-2.08h.8c.23,0,.42.06.56.18.14.12.21.28.21.48s-.07.36-.2.48-.32.17-.56.17h-.43Z"/><path d="m24.5,34.92h.37c.12,0,.22-.03.29-.09.07-.06.1-.15.1-.25,0-.11-.03-.2-.09-.26-.06-.06-.16-.09-.29-.09h-.38v.7Zm.4.29h-.4v.8h-.36v-2.08h.73c.24,0,.42.05.56.16.13.11.2.26.2.47,0,.14-.03.26-.1.35-.07.1-.16.17-.28.22l.47.87v.02h-.39l-.42-.8Z"/><path d="m27.27,34.91c0-.23-.04-.41-.13-.53-.09-.12-.21-.18-.37-.18s-.28.06-.37.18c-.09.12-.13.3-.14.52v.12c0,.23.05.41.14.53.09.12.21.19.37.19s.28-.06.37-.18c.09-.12.13-.3.13-.54v-.11Zm.36.11c0,.2-.04.38-.11.54-.07.15-.17.27-.3.35-.13.08-.28.12-.45.12s-.32-.04-.45-.12-.23-.2-.31-.35c-.07-.15-.11-.33-.11-.53v-.12c0-.2.04-.38.11-.54.07-.16.17-.27.3-.36.13-.08.28-.12.45-.12s.32.04.45.12c.13.08.23.2.3.35.07.15.11.33.11.54v.12Z"/><path d="m30.88,37.26h-1.68v-5.58h-8.39v5.58h-1.68v-5.58h-2.94c-.7,0-1.26-.56-1.26-1.26v-.06c0-.7.56-1.26,1.26-1.26h1.26v-10.46c0-4.17,3.38-7.55,7.55-7.55s7.55,3.38,7.55,7.55v10.46h1.26c.7,0,1.26.56,1.26,1.26v.06c0,.7-.56,1.26-1.26,1.26h-2.94v5.58Zm-5.88-24.49c-3.14,0-5.7,2.46-5.87,5.55v.32s0,9.64,0,9.64h1.68v-5.04h8.39v5.04h1.68v-9.64c0-3.14-2.46-5.7-5.55-5.87h-.32Zm-2.52,12.71v2.8h4.6l-4.6-2.8Zm5.04-.56h-2.73l2.73,1.66v-1.66Zm-3.36-9.46c2.68,0,4.87,2.14,5.03,4.83v.3s-1.67,0-1.67,0c0-1.82-1.37-3.31-3.11-3.44h-.25v-1.69Z"/></svg>