<?xml version="1.0" encoding="UTF-8"?><svg id="Warstwa_1" xmlns="http://www.w3.org/2000/svg" viewBox="0 0 50 50"><defs><style>.cls-1{fill:#1d1d1b;}</style></defs><path class="cls-1" d="m25.4,35.57v-1.25h1.56v1.16l-2.05,1.71-.11.11-.1.12c-.15.21-.24.47-.24.73v1.16h-1.25v-1.32s-.04-.15-.04-.15c-.06-.25-.21-.48-.41-.65l-2.05-1.71v-1.16h1.56v1.25h3.12Zm.31-4.37v1.87h-3.75v-1.99c-.06-.29-.32-.51-.62-.51-.34,0-.62.28-.62.62v1.87h-.74c-.29.06-.51.32-.51.62v2.19c.04.14.11.28.22.37l2.27,1.89v1.9c.04.14.11.27.21.36h3.32c.13-.11.21-.28.21-.47v-1.79l2.27-1.89.08-.08c.09-.11.15-.25.15-.4v-2.19c-.06-.29-.32-.51-.62-.51h-.62v-1.99c-.06-.29-.32-.51-.63-.51-.35,0-.62.28-.62.62m-5.62-8.74c0,.69.56,1.25,1.25,1.25s1.25-.56,1.25-1.25-.56-1.25-1.25-1.25-1.25.56-1.25,1.25m4.99,0c0,.69.56,1.25,1.25,1.25s1.25-.56,1.25-1.25-.56-1.25-1.25-1.25-1.25.56-1.25,1.25m-5.62,0c0-2.41,1.96-4.37,4.37-4.37s4.37,1.96,4.37,4.37-1.96,4.37-4.37,4.37-4.37-1.96-4.37-4.37m-1.25,0c0,3.1,2.52,5.62,5.62,5.62s5.62-2.52,5.62-5.62-2.52-5.62-5.62-5.62-5.62,2.52-5.62,5.62m-.62-6.24h12.49v12.49h-12.49v-12.49Zm-.62-1.25c-.25,0-.47.15-.57.36v14.26c.1.21.32.36.57.36h13.74c.35,0,.62-.28.62-.62v-13.74c0-.35-.28-.62-.62-.62h-13.74Zm.62-2.75v1.18h14.9v15.31h1.09V12.49c-.1-.16-.29-.28-.5-.28h-15.49Z"/></svg>