<?xml version="1.0" encoding="UTF-8"?><svg id="Warstwa_1" xmlns="http://www.w3.org/2000/svg" viewBox="0 0 50 50"><path d="m22.8,38.44c0,.42-.34.76-.76.76s-.76-.34-.76-.76.34-.76.76-.76.76.34.76.76"/><path d="m24.82,38.44c0,.42-.34.76-.76.76s-.76-.34-.76-.76.34-.76.76-.76.76.34.76.76"/><path d="m26.88,38.44c0,.42-.34.76-.76.76s-.76-.34-.76-.76.34-.76.76-.76.76.34.76.76"/><path d="m28.89,38.44c0,.42-.34.76-.76.76s-.76-.34-.76-.76.34-.76.76-.76.76.34.76.76"/><path d="m30.93,37.68h-1.69v-5.63h-8.47v5.63h-1.69v-5.63h-2.96c-.7,0-1.27-.57-1.27-1.27v-.06c0-.7.57-1.27,1.27-1.27h1.27v-10.56c0-4.21,3.41-7.62,7.62-7.62s7.62,3.41,7.62,7.62v10.56h1.27c.7,0,1.27.57,1.27,1.27v.06c0,.7-.57,1.27-1.27,1.27h-2.96v5.63Zm-5.93-24.71c-3.17,0-5.75,2.48-5.92,5.61v.33s0,9.73,0,9.73h1.69v-5.08h8.47v5.08h1.69v-9.73c0-3.17-2.48-5.75-5.6-5.92h-.33Zm-2.54,12.83v2.82h4.64l-4.64-2.82Zm5.08-.57h-2.75l2.75,1.68v-1.68Zm-3.39-9.55c2.71,0,4.92,2.16,5.07,4.87v.3s-1.68,0-1.68,0c0-1.84-1.39-3.34-3.14-3.47h-.25v-1.7Z"/></svg>