<?xml version="1.0" encoding="UTF-8"?><svg id="Warstwa_1" xmlns="http://www.w3.org/2000/svg" viewBox="0 0 50 50"><defs><style>.cls-1{fill:#1d1d1b;}</style></defs><rect class="cls-1" x="8.59" y="15.63" width="1.59" height="23.07"/><rect class="cls-1" x="41.1" y="15.51" width="1.58" height="23.07"/><path class="cls-1" d="m39.59,24.84H11.7c0,.77,0,1.56,0,2.32h27.9c0-.77,0-1.55,0-2.32"/><path class="cls-1" d="m39.6,28.07H11.7c0,.83,0,1.61,0,2.32h27.92c0-.71,0-1.49,0-2.32"/><path class="cls-1" d="m11.69,31.3v2.33h27.93s0-.93,0-2.33H11.69Z"/><path class="cls-1" d="m39.57,21.61H11.7c0,.72,0,1.51,0,2.33h27.88c0-.81,0-1.6,0-2.33"/><path class="cls-1" d="m40.23,13.37H12.62c-.27.43-.47.93-.62,1.51h27.66c.11-.54.3-1.04.56-1.51"/><path class="cls-1" d="m39.57,15.63H11.87c-.09.57-.15,1.21-.16,1.91h27.8c-.02-.65-.01-1.29.05-1.91"/><path class="cls-1" d="m39.56,19.23c0-.26,0-.52-.02-.78H11.7v2.33h27.86c0-.58,0-1.11,0-1.55"/><path class="cls-1" d="m42.56,11.29h-23.73c-2.83-.14-4.65.3-5.75,1.49h27.52c.45-.57,1.07-1.08,1.96-1.49"/></svg>