<?xml version="1.0" encoding="UTF-8"?><svg id="Warstwa_1" xmlns="http://www.w3.org/2000/svg" viewBox="0 0 50 50"><defs><style>.cls-1{fill:#1d1d1b;}</style></defs><path class="cls-1" d="m23.37,11.4c1.63,0,2.96,1.32,2.96,2.96v14.5s.16.11.16.11c1.3.94,2.12,2.41,2.2,4.04v.27c0,2.94-2.38,5.32-5.31,5.32s-5.32-2.38-5.32-5.32c0-1.74.84-3.33,2.21-4.32l.15-.11v-14.5c0-1.57,1.22-2.85,2.76-2.95h.19Zm0,1.18c-.98,0-1.77.79-1.77,1.77v15.16l-.3.17c-1.27.73-2.07,2.09-2.07,3.59,0,2.29,1.85,4.14,4.14,4.14s4.14-1.85,4.14-4.14c0-1.5-.8-2.85-2.07-3.58l-.3-.17v-15.16c0-.98-.8-1.77-1.77-1.77m0,3.55c.29,0,.53.21.58.49v.11s0,13.66,0,13.66c1.35.28,2.36,1.47,2.36,2.9,0,1.63-1.32,2.96-2.96,2.96s-2.96-1.32-2.96-2.96c0-1.43,1.01-2.62,2.36-2.9v-13.66c0-.33.26-.59.59-.59m0,15.37c-.98,0-1.77.79-1.77,1.77s.79,1.77,1.77,1.77,1.77-.79,1.77-1.77-.79-1.77-1.77-1.77m8.87-3.55c.33,0,.59.26.59.59,0,.29-.21.53-.48.58h-.11s-2.96,0-2.96,0c-.33,0-.59-.26-.59-.59,0-.29.21-.53.49-.58h.1s2.96,0,2.96,0Zm1.77-2.36c.33,0,.59.26.59.59,0,.29-.21.53-.49.58h-.11s-4.73,0-4.73,0c-.33,0-.59-.26-.59-.59,0-.29.21-.53.49-.58h.1s4.73-.01,4.73-.01Zm-1.77-2.36c.33,0,.59.26.59.59,0,.29-.21.53-.48.58h-.11s-2.96,0-2.96,0c-.33,0-.59-.26-.59-.59,0-.29.21-.53.49-.58h.1s2.96,0,2.96,0Zm0-2.36c.33,0,.59.26.59.59,0,.29-.21.53-.48.58h-.11s-2.96,0-2.96,0c-.33,0-.59-.26-.59-.59,0-.29.21-.53.49-.58h.1s2.96,0,2.96,0Zm0-2.37c.33,0,.59.26.59.59,0,.29-.21.53-.48.58h-.11s-2.96,0-2.96,0c-.33,0-.59-.26-.59-.59,0-.29.21-.53.49-.58h.1s2.96-.01,2.96-.01Zm1.77-2.36c.33,0,.59.26.59.59,0,.29-.21.53-.49.58h-.11s-4.73.01-4.73.01c-.33,0-.59-.26-.59-.59,0-.29.21-.53.49-.58h.1s4.73-.01,4.73-.01Z"/><path class="cls-1" d="m29.79,13.84h.77l-.39-1.15-.38,1.15Zm.94.51h-1.11l-.21.64h-.68l1.15-3.08h.59l1.15,3.08h-.68l-.21-.64Z"/><path class="cls-1" d="m34.28,13.97c-.02.33-.15.59-.37.78-.22.19-.51.29-.87.29-.39,0-.71-.13-.93-.4-.23-.26-.34-.63-.34-1.09v-.19c0-.3.05-.56.16-.78.1-.23.25-.4.45-.52.19-.12.42-.18.68-.18.36,0,.64.1.86.28.22.19.34.46.38.8h-.63c-.02-.2-.07-.34-.17-.43-.1-.09-.24-.13-.44-.13-.21,0-.37.08-.47.23-.11.15-.16.39-.16.71v.23c0,.33.05.58.15.73.1.15.26.23.48.23.2,0,.34-.04.44-.14.1-.09.15-.23.17-.42h.64Z"/></svg>