<?xml version="1.0" encoding="UTF-8"?><svg id="Warstwa_1" xmlns="http://www.w3.org/2000/svg" viewBox="0 0 50 50"><defs><style>.cls-1{fill:#1d1d1b;}</style></defs><path class="cls-1" d="m38.33,21.88c0,3.53-2.84,6.46-6.3,6.46h-15.62c-2.59,0-4.74-2.2-4.74-4.86s2.14-4.8,4.74-4.8h.08c.32-1.64,1.63-2.92,3.25-3.16.69-2.83,3.18-4.9,6.04-4.9s5.33,2.04,6.03,4.86c.07,0,.15,0,.22,0,3.47,0,6.3,2.87,6.3,6.4"/><path class="cls-1" d="m22.54,33.71c0,1.04-.83,1.89-1.84,1.89s-1.84-.85-1.84-1.89c0-.77.91-2.23,1.34-2.87.12-.17.3-.27.5-.27s.39.1.5.27c.43.64,1.34,2.1,1.34,2.87"/><path class="cls-1" d="m27.45,37.49c0,1.04-.83,1.89-1.84,1.89s-1.84-.85-1.84-1.89c0-.77.91-2.23,1.34-2.87.12-.17.3-.27.51-.27s.39.1.5.27c.43.64,1.34,2.1,1.34,2.87"/><path class="cls-1" d="m32.36,33.71c0,1.04-.83,1.89-1.84,1.89s-1.84-.85-1.84-1.89c0-.77.91-2.23,1.34-2.87.12-.17.3-.27.51-.27s.39.1.5.27c.43.64,1.34,2.1,1.34,2.87"/></svg>