<?xml version="1.0" encoding="UTF-8"?><svg id="Warstwa_1" xmlns="http://www.w3.org/2000/svg" viewBox="0 0 50 50"><defs><style>.cls-1{fill:#1d1d1b;}</style></defs><path class="cls-1" d="m14.01,27.99h7.13v-1.28s0-.06.02-.08h-6.45v-13.58h13.56v4.56h1.36v-5.24c0-.38-.3-.67-.67-.67h-14.94c-.38,0-.67.3-.67.67v14.92c0,.38.3.69.67.69Z"/><path class="cls-1" d="m25.76,17.83c.08.16.14.31.19.47,0,.02.02.02.02.02v-.03c.03-.39.34-.67.73-.67h.45c-.03-.08-.06-.17-.09-.25h-.02v-.02c-.23-.53-.55-1.03-.92-1.47-.19-.22-.39-.42-.61-.61-.03-.03-.08-.06-.11-.09-.17-.16-.36-.3-.56-.42-.47-.33-1-.58-1.56-.75-.28-.09-.58-.16-.88-.2-.3-.05-.63-.08-.94-.08-3.38,0-6.11,2.73-6.11,6.11,0,.16.02.31.03.47.02.03.02.05.02.08v.14c.02.17.05.36.09.53.03.2.08.41.14.59.09.33.23.66.39.95.08.16.16.3.25.45.08.14.17.28.28.42.09.11.19.23.28.36.34.39.73.73,1.17,1.03.13.08.25.17.38.25.13.06.25.13.38.19.13.06.27.13.41.19.27.11.55.2.84.27.14.03.28.06.44.09.17.03.36.05.55.06.12.02.25.03.38.03h.11c.59,0,1.16-.08,1.69-.23.08-.02.14-.05.22-.08v-1.45c-.58.27-1.23.41-1.92.41-.48,0-.97-.08-1.41-.22-.19-.06-.36-.13-.55-.2-.17-.08-.34-.17-.5-.27-.17-.09-.33-.2-.47-.33-.16-.11-.3-.23-.42-.38-.14-.13-.27-.27-.38-.42-.11-.14-.22-.28-.31-.44-.2-.33-.38-.69-.48-1.08-.06-.17-.11-.36-.14-.55-.03-.13-.05-.25-.05-.38-.02-.06-.03-.14-.02-.22-.02-.05-.02-.09-.02-.14v-.13c0-2.63,2.13-4.75,4.75-4.75h.17c.06,0,.11,0,.17.02.03-.02.06-.02.09,0,.25.02.48.05.7.13.25.05.48.13.7.23.19.08.38.17.55.27.16.09.31.19.45.31.17.11.33.25.48.41.02.02.03.03.05.05.14.14.27.3.38.45.16.17.27.36.38.56.06.11.11.2.16.31Z"/><path class="cls-1" d="m24.2,18.48c-.75,0-1.36.61-1.36,1.36s.61,1.36,1.36,1.36,1.34-.61,1.34-1.36-.59-1.36-1.34-1.36Z"/><circle class="cls-1" cx="18.76" cy="19.84" r="1.36"/><path class="cls-1" d="m21.06,31.52h-.67v-2.03l-.02-.13c-.05-.31-.33-.56-.66-.56-.38,0-.69.31-.69.69v2.03h-4.06v-2.03l-.02-.13c-.06-.31-.34-.56-.67-.56-.38,0-.67.31-.67.69v2.03h-.69l-.11.02c-.33.05-.56.33-.56.66v2.27l.02.13c.02.16.11.3.23.41l2.47,2.05v2.06c.06.33.34.56.67.56h2.72l.11-.02c.33-.05.56-.33.56-.66v-1.95l2.47-2.05.09-.09c.09-.13.16-.28.16-.44v-2.27l-.02-.11c-.06-.33-.33-.56-.67-.56Zm-.67,2.63l-2.22,1.86-.12.11-.11.13c-.17.23-.27.52-.27.8v1.27h-1.36v-1.44l-.03-.16c-.08-.28-.23-.53-.45-.7l-2.22-1.86v-1.27h1.69v1.36h3.39v-1.36h1.7v1.27Z"/><path class="cls-1" d="m39.9,26.58s-.05-.02-.08-.02h-1.5v-3.45c0-.38-.3-.7-.67-.73-.03-.02-.05-.02-.08-.02h-1.83v-3.39c0-.41-.3-.72-.69-.73-.02-.02-.05-.02-.06-.02h-7.64s-.08,0-.11.03c-.38.03-.64.33-.64.72v3.39h-1.81c-.41,0-.75.34-.75.75v3.45h-1.5c-.11,0-.22.03-.3.06-.09.05-.17.09-.23.17-.14.12-.22.31-.22.52v4.19s0,.09.03.12c.03.36.34.63.72.63h17.28c.41,0,.75-.33.75-.75v-4.19c0-.39-.3-.7-.67-.73Zm-5.64-3.33v.02c.08.34.38.61.73.61h1.83v3.44s0,.08.02.13c.05.34.36.63.73.63h1.5v2.69h-15.78v-2.69h1.5c.36,0,.66-.25.73-.58.02-.06.02-.11.02-.17v-3.44h1.81c.41,0,.75-.34.75-.77v-3.39h6.14v3.39s0,.09.02.14Z"/></svg>