<?xml version="1.0" encoding="UTF-8"?><svg id="Warstwa_1" xmlns="http://www.w3.org/2000/svg" viewBox="0 0 50 50"><defs><style>.cls-1{fill:#1d1d1b;}</style></defs><path class="cls-1" d="m7.26,35.27c-.44,0-.8-.36-.8-.81,0-.4.28-.73.66-.79h.14s2.42-.01,2.42-.01v-13.71c0-1.26.96-2.29,2.19-2.41h.23c1.34-.01,2.42,1.07,2.42,2.41v.81h9.68v-.81c0-.44.36-.8.81-.8.39,0,.72.29.79.66v.14s.01.81.01.81h9.67v-.81c0-1.26.96-2.29,2.19-2.41h.23c1.34-.01,2.42,1.07,2.42,2.41v13.71h2.42c.44,0,.81.36.81.81,0,.4-.29.72-.66.79h-.14s-35.48.01-35.48.01Zm8.87-12.9h-1.61v11.29h1.61v-11.29Zm-4.03-3.22c-.44,0-.81.36-.81.8v13.71h1.61v-13.71c0-.39-.29-.72-.66-.79h-.14Zm25.8-.01c-.45,0-.81.36-.81.8v13.71h1.61v-13.71c0-.39-.28-.72-.66-.79h-.14Zm-18.54,3.21h-1.61v11.29h1.61v-11.29Zm4.84,0h-3.23v11.29h3.23v-8.06h-.81c-.45,0-.81-.36-.81-.81,0-.4.29-.73.66-.79h.14s.81-.01.81-.01v-1.61Zm8.06,0h-1.61v11.29h1.61v-11.29Zm3.22,0h-1.61v11.29h1.61v-11.29Zm-6.45,0h-3.22v1.61h.8c.45,0,.81.36.81.81,0,.39-.29.72-.66.79h-.15s-.8.01-.8.01v8.06h3.22v-11.29Z"/><path class="cls-1" d="m27.08,17.5h.67c.2,0,.35-.05.45-.14.11-.09.16-.23.16-.4s-.05-.31-.16-.42c-.1-.1-.25-.15-.44-.16h-.68v1.12Zm0,.45v1.19h-.56v-3.2h1.23c.36,0,.64.09.85.28.21.19.32.43.32.74s-.1.56-.31.73c-.21.17-.49.26-.86.26h-.66Z"/><path class="cls-1" d="m29.96,17.45h.57c.19,0,.33-.05.44-.14.1-.1.16-.22.16-.39s-.05-.3-.15-.4c-.1-.09-.24-.14-.44-.14h-.59v1.07Zm.62.45h-.62v1.23h-.56v-3.2h1.13c.37,0,.65.08.85.25.2.17.3.41.3.72,0,.21-.05.39-.16.54-.1.14-.25.26-.43.33l.72,1.33v.03h-.59l-.64-1.23Z"/><path class="cls-1" d="m34.21,17.45c0-.36-.07-.63-.2-.82-.14-.19-.33-.28-.57-.28s-.43.09-.56.28c-.14.19-.21.45-.21.8v.19c0,.35.07.62.21.82.14.19.33.29.57.29s.44-.09.57-.28c.13-.19.2-.46.2-.82v-.17Zm.56.17c0,.31-.05.59-.16.82-.11.24-.26.42-.46.54-.2.13-.44.19-.7.19s-.49-.06-.69-.19c-.2-.13-.36-.31-.47-.54-.11-.23-.17-.5-.17-.81v-.18c0-.31.05-.59.16-.83.11-.24.27-.42.47-.55.2-.13.43-.19.69-.19s.49.06.69.19c.2.12.36.3.47.54.11.24.16.51.17.82v.18Z"/></svg>