<?xml version="1.0" encoding="UTF-8"?><svg id="Warstwa_1" xmlns="http://www.w3.org/2000/svg" viewBox="0 0 50 50"><defs><style>.cls-1{fill:#1d1d1b;}</style></defs><path class="cls-1" d="m36.97,36.67H8.82v-1.3h28.15v1.3ZM9.49,14.62c-.37,0-.67-.29-.67-.65s.3-.65.67-.65h26.81c.37,0,.67.29.67.65s-.3.65-.67.65H9.49Zm26.14,7.78H10.16v-6.49h25.47v6.49Zm-14.75,9.08h-6.7v-7.78h6.7v7.78Zm16.76,2.59H11.5v-10.38h1.34v9.08h9.38v-9.08h1.34v9.08h6.61v-1.3h-5.27v-7.78h6.7v1.54h1.34v-1.54h1.34v1.54h1.34v-1.54h1.34v-7.89c.78-.27,1.34-.99,1.34-1.83,0-1.07-.9-1.95-2.01-1.95H9.49c-1.11,0-2.01.87-2.01,1.95,0,.85.56,1.57,1.34,1.83v7.89h1.34v10.38h-2.01c-.37,0-.67.29-.67.65v2.59c0,.36.3.65.67.65h29.49c.37,0,.67-.29.67-.65v-2.71c-.07-.3-.34-.53-.67-.53"/><path class="cls-1" d="m33.28,27.72v3.8h.52c.43,0,.76-.15.99-.45.23-.3.35-.74.35-1.33v-.26c0-.58-.11-1.02-.35-1.32-.23-.29-.57-.44-1.01-.44h-.51Zm-1.5,4.92v-6.04h2.01c.55,0,1.05.12,1.49.36.44.24.78.59,1.03,1.03.24.44.37.94.37,1.48v.28c0,.55-.12,1.05-.36,1.49-.24.44-.58.78-1.02,1.03-.44.25-.93.37-1.47.38h-2.05Z"/><path class="cls-1" d="m42.51,30.6c-.02.42-.14.79-.35,1.11-.21.32-.52.57-.9.75-.39.18-.83.26-1.33.26-.82,0-1.47-.26-1.94-.78-.47-.52-.71-1.25-.71-2.19v-.3c0-.59.1-1.11.32-1.55.21-.45.52-.79.92-1.03.4-.24.86-.36,1.39-.36.76,0,1.37.19,1.83.58.46.38.72.92.78,1.6h-1.5c-.01-.37-.11-.63-.29-.79-.18-.16-.45-.24-.82-.24s-.65.13-.82.4c-.17.27-.26.71-.27,1.3v.43c0,.65.08,1.11.25,1.38.17.28.46.42.86.42.35,0,.61-.08.79-.24.18-.16.28-.41.29-.75h1.5Z"/></svg>