<?xml version="1.0" encoding="UTF-8"?><svg id="Warstwa_1" xmlns="http://www.w3.org/2000/svg" viewBox="0 0 50 50"><defs><style>.cls-1{fill:#1d1d1b;}</style></defs><path class="cls-1" d="m34.03,28.16h-2.3c-.33-1.08-1.13-1.84-2.07-1.84h-2.34c-.94,0-1.74.77-2.07,1.84h-8.6v-5.45h-.66l5.45-5.71c.29.82.3,1.85-.02,2.72-.23.63-.44,1.27-.54,1.94-.15,1.05.22,2,1.09,2.54-.54-.9-.57-1.75-.39-2.64.12-.57.35-1.1.54-1.65.34-.94.35-1.85-.19-2.75-.09-.15-.22-.24-.35-.33l3.24-3.39,9.19,9.4v5.31Zm0,7.53h-17.38v-.71h17.38v.71Zm-17.38-2.98h17.38v.71h-17.38v-.71Zm17.38-2.34v.71h-2.22c.04-.22.06-.45.07-.71h2.14Zm-8.93,0c0,.26.03.49.07.71h-8.52v-.71h8.45Zm15.27-3.51l-14.33-14.67h0s-1.21-1.25-1.21-1.25l-15.22,15.92,1.21,1.25,4.12-4.31v15.24h20.79v-14.45l3.43,3.51,1.2-1.25Z"/></svg>