<?xml version="1.0" encoding="UTF-8"?><svg id="Warstwa_1" xmlns="http://www.w3.org/2000/svg" viewBox="0 0 50 50"><defs><style>.cls-1{fill:#1d1d1b;}</style></defs><g><path class="cls-1" d="m29.56,35.11c-.05-.3-.32-.53-.65-.53h-.67v-2l-.02-.12c-.05-.3-.32-.53-.65-.53-.37,0-.65.28-.65.65v2h-3.99v-2l-.02-.12c-.05-.3-.32-.53-.65-.53-.37,0-.67.28-.67.65v2h-.78c-.3.07-.53.33-.53.67v2.32c.03.15.12.3.23.4l2.42,2v1.9l.02.12c.02.17.1.28.2.38h3.54c.13-.12.23-.3.23-.5v-1.9l2.4-2,.08-.08c.1-.12.17-.27.17-.43v-2.2l-.02-.13Zm-1.32,2.02l-2.17,1.82-.13.12-.1.13c-.17.22-.25.5-.25.77v1.25h-1.33v-1.42l-.03-.15c-.07-.27-.22-.52-.43-.7l-2.19-1.8v-1.25h1.67v1.33h3.32v-1.33h1.65v1.23Z"/><path class="cls-1" d="m23.6,23.28c0,.73-.6,1.33-1.33,1.33s-1.32-.6-1.32-1.33.58-1.32,1.32-1.32,1.33.6,1.33,1.32Z"/><path class="cls-1" d="m28.91,23.28c0,.73-.6,1.33-1.33,1.33s-1.32-.6-1.32-1.33.58-1.32,1.32-1.32,1.33.6,1.33,1.32Z"/><path class="cls-1" d="m23.6,23.28c0,.73-.6,1.33-1.33,1.33s-1.32-.6-1.32-1.33.58-1.32,1.32-1.32,1.33.6,1.33,1.32Z"/><path class="cls-1" d="m28.91,23.28c0,.73-.6,1.33-1.33,1.33s-1.32-.6-1.32-1.33.58-1.32,1.32-1.32,1.33.6,1.33,1.32Z"/><path class="cls-1" d="m23.6,23.28c0,.73-.6,1.33-1.33,1.33s-1.32-.6-1.32-1.33.58-1.32,1.32-1.32,1.33.6,1.33,1.32Z"/><path class="cls-1" d="m28.91,23.28c0,.73-.6,1.33-1.33,1.33s-1.32-.6-1.32-1.33.58-1.32,1.32-1.32,1.33.6,1.33,1.32Z"/><path class="cls-1" d="m24.92,17.31c-3.3,0-5.97,2.69-5.97,5.97s2.67,5.97,5.97,5.97,5.97-2.67,5.97-5.97-2.67-5.97-5.97-5.97Zm0,10.63c-2.57,0-4.64-2.09-4.64-4.66s2.07-4.64,4.64-4.64,4.66,2.09,4.66,4.64-2.09,4.66-4.66,4.66Z"/><path class="cls-1" d="m23.6,23.28c0,.73-.6,1.33-1.33,1.33s-1.32-.6-1.32-1.33.58-1.32,1.32-1.32,1.33.6,1.33,1.32Z"/><path class="cls-1" d="m28.91,23.28c0,.73-.6,1.33-1.33,1.33s-1.32-.6-1.32-1.33.58-1.32,1.32-1.32,1.33.6,1.33,1.32Z"/><path class="cls-1" d="m24.92,17.31c-3.3,0-5.97,2.69-5.97,5.97s2.67,5.97,5.97,5.97,5.97-2.67,5.97-5.97-2.67-5.97-5.97-5.97Zm0,10.63c-2.57,0-4.64-2.09-4.64-4.66s2.07-4.64,4.64-4.64,4.66,2.09,4.66,4.64-2.09,4.66-4.66,4.66Z"/><path class="cls-1" d="m23.6,23.28c0,.73-.6,1.33-1.33,1.33s-1.32-.6-1.32-1.33.58-1.32,1.32-1.32,1.33.6,1.33,1.32Z"/><path class="cls-1" d="m28.91,23.28c0,.73-.6,1.33-1.33,1.33s-1.32-.6-1.32-1.33.58-1.32,1.32-1.32,1.33.6,1.33,1.32Z"/><path class="cls-1" d="m24.92,17.31c-3.3,0-5.97,2.69-5.97,5.97s2.67,5.97,5.97,5.97,5.97-2.67,5.97-5.97-2.67-5.97-5.97-5.97Zm0,10.63c-2.57,0-4.64-2.09-4.64-4.66s2.07-4.64,4.64-4.64,4.66,2.09,4.66,4.64-2.09,4.66-4.66,4.66Z"/><path class="cls-1" d="m32.23,15.32h-14.6c-.27,0-.5.17-.6.38v15.17c.1.22.33.38.6.38h14.6c.37,0,.67-.3.67-.67v-14.6c0-.37-.3-.67-.67-.67Zm-.67,14.6h-13.28v-13.27h13.28v13.27Z"/><path class="cls-1" d="m18.29,12.4v1.25h15.85v16.28h1.15V12.69c-.11-.18-.31-.29-.53-.29h-16.47Z"/><path class="cls-1" d="m19.58,9.81v1.25h16.92v17.67h1.15V10.11c-.11-.18-.31-.29-.53-.29h-17.54Z"/></g><g><path class="cls-1" d="m32.82,36.03h.61c.18,0,.32-.04.41-.13.1-.08.14-.21.14-.37s-.05-.28-.15-.38c-.09-.09-.23-.14-.4-.14h-.62v1.02Zm0,.41v1.08h-.51v-2.92h1.12c.32,0,.58.08.77.26.19.17.29.4.29.67s-.09.51-.28.67c-.19.16-.45.24-.79.24h-.6Z"/><path class="cls-1" d="m35.45,35.99h.52c.17,0,.3-.04.4-.13.09-.09.14-.2.14-.35s-.05-.28-.13-.36c-.09-.08-.22-.13-.4-.13h-.53v.98Zm.56.41h-.56v1.12h-.51v-2.92h1.03c.33,0,.6.07.78.22.18.15.28.37.28.66,0,.2-.05.36-.14.49-.09.13-.23.23-.39.3l.65,1.22v.03h-.54l-.58-1.12Z"/><path class="cls-1" d="m39.32,35.99c0-.32-.06-.57-.18-.74-.12-.17-.3-.26-.52-.26s-.39.09-.51.26c-.12.17-.19.41-.19.73v.17c0,.32.06.57.19.74.13.17.3.26.52.26s.4-.09.52-.26c.12-.17.18-.42.18-.75v-.15Zm.51.15c0,.29-.05.54-.15.75-.1.22-.24.38-.42.5-.18.11-.4.17-.64.17s-.45-.06-.63-.17c-.18-.11-.33-.28-.43-.49-.1-.21-.15-.46-.15-.74v-.17c0-.29.05-.54.15-.75.1-.22.24-.38.43-.5.18-.12.39-.17.63-.17s.45.06.63.17c.18.11.32.28.43.49.1.21.15.46.15.75v.16Z"/></g></svg>