<?xml version="1.0" encoding="UTF-8"?><svg id="Warstwa_1" xmlns="http://www.w3.org/2000/svg" viewBox="0 0 50 50"><defs><style>.cls-1{fill:#1d1d1b;}</style></defs><path class="cls-1" d="m16.65,28.56h6.89v-1.24s0-.06.02-.08h-6.24v-13.13h13.11v4.41h1.31v-5.06c0-.36-.29-.65-.65-.65h-14.44c-.36,0-.65.29-.65.65v14.43c0,.36.29.66.65.66Z"/><path class="cls-1" d="m28.92,18.53h.45s-.02-.05-.03-.06c0-.02-.02-.05-.03-.06-.02-.05-.03-.08-.05-.12-.92-2.07-2.99-3.5-5.39-3.5-3.26,0-5.91,2.64-5.91,5.91s2.58,5.83,5.8,5.89h.11c.57,0,1.12-.08,1.63-.23.08-.02.14-.05.21-.08v-1.39c-.56.26-1.18.39-1.84.39-2.54,0-4.59-2.05-4.59-4.59s2.05-4.59,4.59-4.59c2.02,0,3.7,1.3,4.34,3.08.03-.38.33-.65.71-.65Z"/><path class="cls-1" d="m25.19,20.7c0,.73.59,1.31,1.31,1.31s1.3-.59,1.3-1.31-.57-1.31-1.3-1.31-1.31.59-1.31,1.31Z"/><path class="cls-1" d="m19.93,20.7c0,.73.59,1.31,1.31,1.31s1.31-.59,1.31-1.31-.59-1.31-1.31-1.31-1.31.59-1.31,1.31Z"/><path class="cls-1" d="m23.48,31.99h-.65v-1.96l-.02-.12c-.05-.3-.32-.54-.63-.54-.36,0-.66.3-.66.66v1.96h-3.93v-1.96l-.02-.12c-.06-.3-.33-.54-.65-.54-.36,0-.65.3-.65.66v1.96h-.66l-.11.02c-.32.05-.54.32-.54.63v2.19l.02.12c.02.15.11.29.23.39l2.39,1.98v1.99c.06.32.33.54.65.54h2.63l.11-.02c.32-.05.54-.32.54-.63v-1.89l2.39-1.98.09-.09c.09-.12.15-.27.15-.42v-2.19l-.02-.11c-.06-.32-.32-.54-.65-.54Zm-.65,2.54l-2.15,1.8-.12.11-.11.12c-.17.23-.26.5-.26.77v1.22h-1.31v-1.39l-.03-.15c-.08-.27-.23-.51-.44-.68l-2.15-1.8v-1.22h1.63v1.31h3.28v-1.31h1.65v1.22Z"/><path class="cls-1" d="m41.68,27.19h-1.51v-3.34c0-.38-.3-.69-.66-.73h-1.83v-3.28c0-.39-.29-.69-.68-.71-.02-.02-.03-.02-.05-.02h-7.4s-.08,0-.11.03c-.35.03-.6.33-.6.69v3.28h-1.75c-.39,0-.73.33-.73.73v3.34h-1.45c-.11,0-.2.03-.29.06-.09.05-.17.09-.23.17-.14.12-.21.3-.21.5v4.05s0,.09.03.12c.03.35.33.6.69.6h16.71c.39,0,.73-.32.73-.73v-4.05c0-.39-.3-.69-.66-.73Zm-5.44-3.19c.08.33.36.59.71.59h1.77v3.32s0,.09.02.14c.06.33.35.59.71.59h1.45v2.6h-15.26v-2.6h1.45c.35,0,.63-.24.71-.56.02-.06.02-.11.02-.17v-3.32h1.75c.39,0,.73-.33.73-.74v-3.28h5.94v3.28s0,.11.02.15Z"/><path class="cls-1" d="m33.03,18.04h1.36v-7.22c0-.38-.3-.68-.68-.68h-16.69v1.36h16.01v6.54Z"/></svg>