<?xml version="1.0" encoding="UTF-8"?><svg id="Warstwa_1" xmlns="http://www.w3.org/2000/svg" viewBox="0 0 50 50"><defs><style>.cls-1{fill:#1d1d1b;}</style></defs><path class="cls-1" d="m30.82,32.5l-4.4,1.76V14.89l4.4,1.76v15.85Zm-6.69-.37h-1.73v-15.11h1.73v15.11Zm14.53,0h-5.54V15.1l-8.98-3.59v3.22h-4.01v17.4h-5.59s-.16.02-.16.02c-.54.1-.94.57-.94,1.13,0,.63.51,1.14,1.15,1.14h9.56v3.22l8.06-3.22h6.51l.16-.02c.54-.1.94-.57.94-1.13,0-.63-.51-1.15-1.15-1.15"/><path class="cls-1" d="m27.89,25.69c.4,0,.73-.33.73-.73s-.33-.74-.73-.74-.73.33-.73.74.33.73.73.73"/></svg>