<?xml version="1.0" encoding="UTF-8"?><svg id="Warstwa_1" xmlns="http://www.w3.org/2000/svg" viewBox="0 0 50 50"><defs><style>.cls-1{fill:#1d1d1b;}</style></defs><path class="cls-1" d="m24.1,11.85c1.55,0,2.81,1.26,2.81,2.82v13.8s.15.1.15.1c1.23.89,2.02,2.3,2.1,3.85v.26c0,2.8-2.26,5.07-5.06,5.07s-5.07-2.27-5.07-5.07c0-1.65.8-3.17,2.11-4.11l.15-.1v-13.8c0-1.49,1.16-2.71,2.63-2.81h.19Zm0,1.12c-.93,0-1.69.75-1.69,1.69v14.44l-.28.16c-1.21.7-1.97,1.99-1.97,3.41,0,2.18,1.76,3.94,3.94,3.94s3.94-1.76,3.94-3.94c0-1.42-.76-2.71-1.97-3.41l-.28-.16v-14.44c0-.93-.76-1.69-1.69-1.69m0,3.38c.28,0,.51.2.55.46v.1s0,13,0,13c1.29.26,2.25,1.4,2.25,2.76,0,1.56-1.26,2.82-2.81,2.82s-2.81-1.26-2.81-2.82c0-1.36.97-2.5,2.25-2.76v-13c0-.31.25-.56.56-.56m0,14.63c-.93,0-1.69.76-1.69,1.69s.76,1.69,1.69,1.69,1.69-.75,1.69-1.69-.76-1.69-1.69-1.69m8.44-3.38c.31,0,.56.25.56.57,0,.27-.2.51-.46.55h-.1s-2.82,0-2.82,0c-.31,0-.56-.25-.56-.56,0-.28.2-.51.46-.56h.1s2.82,0,2.82,0Zm1.69-2.25c.31,0,.56.25.56.56,0,.28-.2.51-.46.55h-.1s-4.5,0-4.5,0c-.31,0-.56-.25-.56-.56,0-.27.2-.51.46-.55h.1s4.5,0,4.5,0Zm-1.69-2.25c.31,0,.56.25.56.56,0,.28-.2.51-.46.55h-.1s-2.82,0-2.82,0c-.31,0-.56-.25-.56-.56,0-.28.2-.51.46-.55h.1s2.82,0,2.82,0Zm0-2.25c.31,0,.56.25.56.56,0,.27-.2.51-.46.55h-.1s-2.82,0-2.82,0c-.31,0-.56-.25-.56-.56,0-.28.2-.51.46-.55h.1s2.82,0,2.82,0Zm0-2.25c.31,0,.56.25.56.56,0,.28-.2.51-.46.55h-.1s-2.82,0-2.82,0c-.31,0-.56-.25-.56-.56,0-.28.2-.51.46-.55h.1s2.82,0,2.82,0Zm1.69-2.25c.31,0,.56.25.56.56,0,.28-.2.51-.46.55h-.1s-4.5,0-4.5,0c-.31,0-.56-.25-.56-.56,0-.27.2-.51.46-.55h.1s4.5,0,4.5,0Z"/><path class="cls-1" d="m29.57,14.29h.45c.14,0,.24-.03.31-.09.07-.06.11-.15.11-.27s-.04-.21-.11-.28c-.07-.07-.17-.11-.3-.11h-.46v.76Zm0,.31v.81h-.38v-2.18h.83c.24,0,.44.06.58.19s.21.29.21.5-.07.38-.21.5-.34.18-.59.18h-.45Z"/><path class="cls-1" d="m31.53,14.26h.39c.13,0,.23-.03.3-.09.07-.07.11-.15.11-.27,0-.12-.03-.21-.1-.27-.07-.06-.17-.1-.3-.1h-.4v.73Zm.42.31h-.42v.84h-.38v-2.18h.77c.25,0,.45.06.58.17.14.11.21.27.21.49,0,.15-.03.27-.11.37-.07.1-.17.17-.29.23l.49.91v.02h-.41l-.44-.84Z"/><path class="cls-1" d="m34.42,14.25c0-.24-.04-.43-.14-.55-.09-.13-.22-.19-.39-.19s-.29.06-.38.19c-.09.13-.14.31-.14.54v.13c0,.24.05.42.14.55.09.13.22.2.39.2s.3-.06.39-.19c.09-.13.14-.31.14-.56v-.11Zm.38.11c0,.21-.04.4-.11.56-.07.16-.18.29-.32.37-.14.09-.29.13-.47.13s-.33-.04-.47-.13c-.14-.09-.24-.21-.32-.37-.08-.16-.11-.34-.11-.55v-.12c0-.21.04-.4.11-.56.08-.16.18-.29.32-.37.14-.09.3-.13.47-.13s.34.04.47.13c.14.09.24.21.32.37.08.16.11.35.11.56v.12Z"/></svg>