<?xml version="1.0" encoding="UTF-8"?><svg id="Warstwa_1" xmlns="http://www.w3.org/2000/svg" viewBox="0 0 50 50"><defs><style>.cls-1{fill:#1d1d1b;}</style></defs><path class="cls-1" d="m6.72,34.14c-.46,0-.83-.37-.83-.83,0-.41.3-.75.68-.82h.15s2.49-.01,2.49-.01v-14.13c0-1.3.99-2.36,2.25-2.48h.24c1.38-.01,2.49,1.1,2.49,2.48v.83h9.97v-.83c0-.46.37-.83.83-.83.41,0,.75.29.82.68v.15s.01.83.01.83h9.97v-.83c0-1.3.99-2.36,2.25-2.48h.24c1.38-.01,2.49,1.1,2.49,2.48v14.13h2.49c.46,0,.83.37.83.83,0,.41-.29.75-.68.82l-.15.02H6.72Zm9.14-13.3h-1.66v11.64h1.66v-11.64Zm-4.15-3.32c-.46,0-.83.37-.83.83v14.13h1.66v-14.13c0-.41-.3-.75-.68-.82h-.15Zm26.6-.01c-.46,0-.83.37-.83.83v14.13h1.66v-14.13c0-.41-.29-.75-.68-.82h-.15Zm-19.12,3.31h-1.66v11.64h1.66v-11.64Zm4.99,0h-3.32v11.64h3.32v-8.31h-.83c-.46,0-.83-.37-.83-.83,0-.41.3-.75.68-.82h.15s.83-.01.83-.01v-1.66Zm8.31,0h-1.66v11.64h1.66v-11.64Zm3.32,0h-1.66v11.64h1.66v-11.64Zm-6.65,0h-3.32v1.66h.83c.46,0,.83.37.83.83,0,.41-.29.75-.68.82h-.15s-.83.01-.83.01v8.31h3.32v-11.64Z"/></svg>