<?xml version="1.0" encoding="UTF-8"?><svg id="Warstwa_1" xmlns="http://www.w3.org/2000/svg" viewBox="0 0 50 50"><defs><style>.cls-1{fill:#1d1d1b;}</style></defs><path class="cls-1" d="m36.84,12.05c1.85,0,3.35,1.5,3.35,3.34,0,.64-.18,1.24-.49,1.75.12.05.22.13.31.24.26.32.24.77-.02,1.07l-.11.1-25.08,20.06c-.36.29-.89.23-1.18-.13-.05-.06-.08-.12-.11-.18-.51.31-1.1.49-1.75.49-1.85,0-3.34-1.5-3.34-3.35,0-.64.18-1.24.49-1.75-.12-.05-.22-.13-.31-.24-.26-.32-.24-.77.02-1.07l.11-.1,25.08-20.07c.36-.29.89-.23,1.18.13.04.06.08.12.11.18.51-.31,1.11-.49,1.75-.49m-25.08,21.74c-.92,0-1.67.75-1.67,1.67s.75,1.67,1.67,1.67,1.67-.75,1.67-1.67-.75-1.67-1.67-1.67m5.13-5.88l-5.26,4.21h.13c1.76,0,3.21,1.36,3.34,3.09v.25c0,.3-.03.58-.1.86l5.26-4.21h-.13c-1.76,0-3.21-1.36-3.34-3.09v-.25c0-.3.03-.58.1-.86m3.23-.81c-.92,0-1.67.75-1.67,1.67s.75,1.67,1.67,1.67,1.67-.75,1.67-1.67-.75-1.67-1.67-1.67m5.13-5.88l-5.26,4.21h.13c1.76,0,3.21,1.36,3.33,3.09v.25c0,.3-.03.58-.1.86l5.26-4.21h-.13c-1.76,0-3.21-1.36-3.34-3.09v-.25c0-.3.03-.58.1-.86m3.23-.81c-.92,0-1.67.75-1.67,1.67s.75,1.67,1.67,1.67,1.67-.75,1.67-1.67-.75-1.67-1.67-1.67m5.13-5.88l-5.26,4.21h.13c1.76,0,3.21,1.36,3.33,3.09v.25c0,.3-.03.58-.1.86l5.25-4.21h-.13c-1.76,0-3.21-1.36-3.34-3.09v-.25c0-.3.03-.58.1-.86m3.23-.81c-.92,0-1.67.75-1.67,1.67s.75,1.67,1.67,1.67,1.67-.75,1.67-1.67-.75-1.67-1.67-1.67"/></svg>