<?xml version="1.0" encoding="UTF-8"?><svg id="Warstwa_1" xmlns="http://www.w3.org/2000/svg" viewBox="0 0 50 50"><defs><style>.cls-1{fill:#1d1d1b;}</style></defs><path class="cls-1" d="m27.52,28.11c.31,0,.57.22.62.52v.11s.01,1.9.01,1.9h.63c.31,0,.57.22.62.52v.11s.01,2.1.01,2.1c0,.15-.05.29-.15.41l-.08.08-2.3,1.91v1.81c0,.31-.22.57-.52.62h-.11s-2.52.01-2.52.01c-.31,0-.57-.22-.62-.52v-.11s-.01-1.81-.01-1.81l-2.3-1.91c-.11-.1-.19-.23-.22-.38v-.11s-.01-2.1-.01-2.1c0-.31.22-.57.52-.62h.11s.63-.01.63-.01v-1.9c0-.35.28-.63.63-.63.31,0,.57.22.62.52v.11s.01,1.9.01,1.9h3.79v-1.9c0-.35.28-.63.63-.63m-4.1,3.79h-1.58v1.18l2.07,1.73c.2.17.35.4.41.65l.03.16v.16s.01,1.18.01,1.18h1.26v-1.18c0-.27.08-.52.24-.74l.1-.12.12-.11,2.07-1.73v-1.18h-1.58v1.26h-3.16v-1.26Zm8.52-19.57c.35,0,.63.28.63.63v13.89c0,.35-.28.63-.63.63h-13.89c-.35,0-.63-.28-.63-.63v-13.89c0-.35.28-.63.63-.63h13.89Zm-.63,1.26h-12.63v12.63h12.63v-12.63Zm-6.31.63c3.14,0,5.68,2.54,5.68,5.68s-2.54,5.68-5.68,5.68-5.68-2.54-5.68-5.68,2.54-5.68,5.68-5.68m0,1.26c-2.44,0-4.42,1.98-4.42,4.42s1.98,4.42,4.42,4.42,4.42-1.98,4.42-4.42-1.98-4.42-4.42-4.42m-2.53,3.16c.7,0,1.26.57,1.26,1.26s-.57,1.26-1.26,1.26-1.26-.57-1.26-1.26.57-1.26,1.26-1.26m5.05,0c.7,0,1.26.57,1.26,1.26s-.57,1.26-1.26,1.26-1.26-.57-1.26-1.26.57-1.26,1.26-1.26"/></svg>