<?xml version="1.0" encoding="UTF-8"?><svg id="Warstwa_1" xmlns="http://www.w3.org/2000/svg" viewBox="0 0 50 50"><defs><style>.cls-1{fill:#1d1d1b;}</style></defs><path class="cls-1" d="m33.48,25.79c-.3-.21-.73-.18-1,.09l-1.32,1.32-1.32-1.32-.11-.09c-.31-.21-.72-.18-1,.09-.3.3-.3.8,0,1.1l1.65,1.65v1.55h1.56v-1.55l1.65-1.65.09-.11c.21-.3.18-.73-.09-1l-.11-.09Z"/><path class="cls-1" d="m36.93,24.57c-.16-2.88-2.54-5.17-5.46-5.17v1.56h.26c2.04.14,3.65,1.83,3.65,3.91h1.56v-.3Z"/><path class="cls-1" d="m31.49,31.27h-.33c-3.71,0-6.72-3-6.72-6.71s2.83-6.54,6.39-6.71h.32c3.71,0,6.72,3,6.72,6.71s-2.83,6.54-6.39,6.71m2.64,4.54v.15c-.08.54-.54.95-1.1.95h-3.9c-.53-.08-.94-.54-.94-1.09v-3.52c.92.35,1.92.55,2.97.55s2.05-.2,2.97-.55v3.52Zm-2.97,3.44c-.5,0-.91-.33-1.05-.78h2.1c-.13.45-.55.78-1.05.78m8.28-14.69c0-4.46-3.52-8.1-7.94-8.27h-.34c-4.57,0-8.28,3.7-8.28,8.27,0,2.92,1.51,5.49,3.8,6.97-.04.17-.05.35-.05.53v3.98c.1,1.1.86,2,1.88,2.31.1,1.37,1.25,2.46,2.65,2.46,1.47,0,2.66-1.19,2.66-2.66v.2c1.08-.33,1.87-1.34,1.87-2.54v-3.94c-.02-.13-.04-.26-.06-.38v.04c2.3-1.47,3.81-4.04,3.81-6.97"/><path class="cls-1" d="m17.47,13.71c-2.52,0-4.55,2.11-4.55,4.7s2.03,4.7,4.55,4.7,4.55-2.11,4.55-4.7-2.03-4.7-4.55-4.7m0,7.8c-1.63,0-2.95-1.39-2.95-3.1s1.33-3.1,2.95-3.1,2.95,1.38,2.95,3.1-1.33,3.1-2.95,3.1"/><path class="cls-1" d="m22.88,10.97c-1.02,0-1.85.83-1.85,1.85s.83,1.84,1.85,1.84,1.85-.83,1.85-1.84-.83-1.85-1.85-1.85"/><path class="cls-1" d="m12.01,13.84c.56,0,1.02-.46,1.02-1.02s-.45-1.02-1.02-1.02-1.02.46-1.02,1.02.46,1.02,1.02,1.02"/><path class="cls-1" d="m10.07,17.55c-.5,0-.9.4-.9.9s.4.9.9.9.9-.4.9-.9-.4-.9-.9-.9"/><path class="cls-1" d="m12.17,23.26c-.41,0-.74.33-.74.74s.33.74.74.74.74-.33.74-.74-.33-.74-.74-.74"/><path class="cls-1" d="m17.59,25.34c-.29,0-.54.24-.54.54s.24.53.54.53.54-.24.54-.53-.24-.54-.54-.54"/><path class="cls-1" d="m17.59,11.98c.77,0,1.39-.62,1.39-1.39s-.62-1.39-1.39-1.39-1.39.62-1.39,1.39.62,1.39,1.39,1.39"/></svg>