<?xml version="1.0" encoding="UTF-8"?><svg id="Warstwa_1" xmlns="http://www.w3.org/2000/svg" viewBox="0 0 50 50"><path d="m22.61,35.1h.44c.13,0,.23-.03.3-.09.07-.06.1-.15.1-.27s-.03-.2-.1-.27c-.07-.07-.16-.1-.29-.1h-.45v.73Zm0,.29v.78h-.37v-2.1h.8c.24,0,.42.06.56.18.14.12.21.28.21.49s-.07.37-.2.48-.33.17-.57.17h-.43Z"/><path d="m24.5,35.08h.38c.12,0,.22-.03.29-.09.07-.06.1-.15.1-.25s-.03-.2-.1-.26c-.06-.06-.16-.09-.29-.1h-.38v.71Zm.41.29h-.41v.81h-.37v-2.1h.74c.24,0,.43.06.56.16.13.11.2.27.2.47,0,.14-.03.26-.1.35-.07.1-.16.17-.28.22l.47.87v.02h-.39l-.42-.81Z"/><path d="m27.29,35.07c0-.23-.04-.41-.13-.54-.09-.12-.21-.19-.37-.19s-.28.06-.37.19c-.09.12-.14.3-.14.52v.12c0,.23.05.41.14.54.09.13.21.19.37.19s.29-.06.37-.18c.09-.12.13-.3.13-.54v-.11Zm.37.11c0,.21-.04.39-.11.54-.07.16-.17.28-.3.36-.13.08-.28.12-.46.12s-.32-.04-.46-.12c-.13-.08-.24-.2-.31-.36-.07-.15-.11-.33-.11-.53v-.12c0-.2.04-.39.11-.54.07-.16.17-.28.31-.36.13-.08.28-.12.46-.12s.32.04.46.12c.13.08.23.2.31.36.07.15.11.33.11.54v.12Z"/><path d="m22.8,38.2c0,.42-.34.76-.76.76s-.76-.34-.76-.76.34-.76.76-.76.76.34.76.76"/><path d="m24.82,38.2c0,.42-.34.76-.76.76s-.76-.34-.76-.76.34-.76.76-.76.76.34.76.76"/><path d="m26.88,38.2c0,.42-.34.76-.76.76s-.76-.34-.76-.76.34-.76.76-.76.76.34.76.76"/><path d="m28.89,38.2c0,.42-.34.76-.76.76s-.76-.34-.76-.76.34-.76.76-.76.76.34.76.76"/><path d="m30.93,37.45h-1.69v-5.63h-8.47v5.63h-1.69v-5.63h-2.96c-.7,0-1.27-.57-1.27-1.27v-.06c0-.7.57-1.27,1.27-1.27h1.27v-10.56c0-4.21,3.41-7.62,7.62-7.62s7.62,3.41,7.62,7.62v10.56h1.27c.7,0,1.27.57,1.27,1.27v.06c0,.7-.57,1.27-1.27,1.27h-2.96v5.63Zm-5.93-24.71c-3.17,0-5.75,2.48-5.92,5.61v.33s0,9.73,0,9.73h1.69v-5.08h8.47v5.08h1.69v-9.73c0-3.17-2.48-5.75-5.6-5.92h-.33Zm-2.54,12.83v2.82h4.64l-4.64-2.82Zm5.08-.57h-2.75l2.75,1.68v-1.68Zm-3.39-9.55c2.71,0,4.92,2.16,5.07,4.87v.3s-1.68,0-1.68,0c0-1.84-1.39-3.34-3.14-3.47h-.25v-1.7Z"/></svg>