<?xml version="1.0" encoding="UTF-8"?><svg id="Warstwa_1" xmlns="http://www.w3.org/2000/svg" viewBox="0 0 45.61 52.67"><defs><style>.cls-1{fill:#fff;}.cls-2{fill:#2699d6;}</style></defs><path class="cls-2" d="m38.52,27.65c0,9.17-7.43,16.6-16.6,16.6S5.32,36.82,5.32,27.65,12.75,11.05,21.92,11.05s16.6,7.43,16.6,16.6"/><path class="cls-1" d="m29.45,33.3c-.51,0-.94-.41-.94-.94s.42-.95.94-.95.95.42.95.95-.42.94-.95.94m-6.43-4.57c-.05.13-.13.25-.24.34-.11.1-.24.17-.39.23-.16.05-.34.08-.54.08-.23,0-.44-.04-.63-.11-.19-.08-.35-.18-.48-.29l.14-.23s.04-.05.06-.06c.03-.02.06-.03.1-.03s.08.02.12.05c.04.03.1.06.16.1.06.04.14.07.23.1.08.03.19.05.33.05.11,0,.21-.02.3-.05.08-.02.15-.06.21-.11.06-.05.1-.11.12-.18.03-.06.05-.13.05-.21,0-.09-.03-.17-.08-.23-.05-.06-.11-.11-.19-.15-.08-.04-.18-.08-.28-.11-.1-.03-.21-.07-.32-.1-.11-.04-.21-.08-.32-.12-.1-.04-.19-.1-.27-.17-.08-.07-.15-.15-.2-.25-.05-.1-.07-.22-.07-.36,0-.13.03-.25.08-.37.05-.11.13-.22.23-.3.1-.09.22-.16.37-.21.14-.06.31-.08.5-.08.22,0,.41.03.59.1.17.07.32.16.45.28l-.13.22s-.07.07-.13.07c-.03,0-.07-.01-.11-.04-.04-.02-.09-.05-.15-.08-.06-.03-.13-.06-.21-.08-.09-.03-.18-.04-.3-.04-.1,0-.19.01-.26.04-.08.02-.15.06-.2.1-.06.05-.1.1-.13.16-.03.05-.05.12-.05.18,0,.09.03.16.08.22.05.05.11.1.19.14.08.04.17.08.28.11.1.03.2.07.31.1.11.04.22.08.32.12.1.05.19.1.27.17.08.06.15.14.2.24.05.09.07.21.07.34,0,.15-.03.29-.08.42m-.16,6.47c0,.51-.42.94-.95.94s-.94-.42-.94-.94.41-.95.94-.95.95.42.95.95m-1.88-15.08c0-.52.41-.95.94-.95s.95.42.95.95-.42.95-.95.95-.94-.42-.94-.95m-6.6,13.18c-.52,0-.95-.41-.95-.94s.42-.95.95-.95.94.42.94.95-.42.94-.94.94m0-8.47c-.52,0-.95-.42-.95-.95s.42-.94.95-.94.94.41.94.94-.42.95-.94.95m15.07-1.88c.52,0,.95.41.95.94s-.42.95-.95.95-.94-.42-.94-.95.42-.94.94-.94m0,7.53c-.52,0-1,.21-1.34.56l-2.87-1.62c.28-.52.44-1.13.44-1.77,0-.33-.04-.65-.12-.97l2.55-1.47c.34.34.81.55,1.34.55,1.05,0,1.88-.85,1.88-1.88s-.84-1.88-1.88-1.88-1.88.85-1.88,1.88c0,.18.03.35.07.51l-2.44,1.4c-.57-1.01-1.6-1.73-2.81-1.88v-1.97c.82-.21,1.41-.95,1.41-1.82,0-1.04-.85-1.88-1.88-1.88s-1.88.85-1.88,1.88c0,.88.6,1.61,1.41,1.82v1.97c-1.13.14-2.11.78-2.7,1.71l-2.54-1.25c.04-.16.06-.32.06-.49,0-1.04-.85-1.88-1.88-1.88s-1.88.85-1.88,1.88.83,1.88,1.88,1.88c.53,0,1.01-.22,1.35-.57l2.61,1.28c-.12.37-.19.76-.19,1.18,0,.62.15,1.22.42,1.74l-2.76,1.74c-.34-.4-.86-.66-1.43-.66-1.05,0-1.88.85-1.88,1.88s.83,1.88,1.88,1.88,1.88-.85,1.88-1.88c0-.13-.01-.25-.04-.37l2.88-1.82c.59.65,1.41,1.11,2.34,1.22v1.97c-.81.21-1.41.95-1.41,1.83,0,1.04.85,1.88,1.88,1.88s1.88-.84,1.88-1.88c0-.89-.59-1.62-1.41-1.83v-1.97c.91-.11,1.71-.54,2.31-1.19l2.94,1.66c-.04.16-.07.33-.07.5,0,1.04.85,1.88,1.88,1.88s1.88-.85,1.88-1.88-.84-1.88-1.88-1.88"/></svg>