<?xml version="1.0" encoding="utf-8"?>
<!-- Generator: Adobe Illustrator 28.0.0, SVG Export Plug-In . SVG Version: 6.00 Build 0)  -->
<svg version="1.1" id="Warstwa_1" xmlns="http://www.w3.org/2000/svg" xmlns:xlink="http://www.w3.org/1999/xlink" x="0px" y="0px"
	 viewBox="0 0 46.2 42.9" style="enable-background:new 0 0 46.2 42.9;" xml:space="preserve">
<style type="text/css">
	.st0{clip-path:url(#SVGID_00000149366484358668363640000018171337109678435207_);}
	.st1{fill:#1D1D1B;}
	.st2{fill:#FFFFFF;}
	.st3{clip-path:url(#SVGID_00000125565610875990518390000007512816361770627249_);}
	.st4{fill:#1C98D5;}
</style>
<g>
	<defs>
		<rect id="SVGID_1_" x="2.5" y="0.9" width="41.1" height="41.1"/>
	</defs>
	<clipPath id="SVGID_00000119810888643804418580000017770595299300445853_">
		<use xlink:href="#SVGID_1_"  style="overflow:visible;"/>
	</clipPath>
	<g style="clip-path:url(#SVGID_00000119810888643804418580000017770595299300445853_);">
		<path class="st1" d="M43.7,21.5c0,11.4-9.2,20.6-20.6,20.6S2.5,32.8,2.5,21.5S11.7,0.9,23.1,0.9S43.7,10.1,43.7,21.5"/>
		<path class="st2" d="M23.4,7.9c1.5,0,2.7,1.2,2.7,2.7c0,1.3-0.9,2.3-2,2.6v2.8c1.7,0.2,3.2,1.3,4,2.7l3.5-2
			c-0.1-0.2-0.1-0.5-0.1-0.7c0-1.5,1.2-2.7,2.7-2.7c1.5,0,2.7,1.2,2.7,2.7s-1.2,2.7-2.7,2.7c-0.7,0-1.4-0.3-1.9-0.8l-3.7,2.1
			c0.1,0.4,0.2,0.9,0.2,1.4c0,0.9-0.2,1.8-0.6,2.6l4.1,2.3c0.5-0.5,1.2-0.8,1.9-0.8c1.5,0,2.7,1.2,2.7,2.7c0,1.5-1.2,2.7-2.7,2.7
			c-1.5,0-2.7-1.2-2.7-2.7c0-0.2,0-0.5,0.1-0.7l-4.2-2.4c-0.8,0.9-2,1.6-3.3,1.7v2.8c1.2,0.3,2,1.4,2,2.6c0,1.5-1.2,2.7-2.7,2.7
			c-1.5,0-2.7-1.2-2.7-2.7c0-1.3,0.9-2.3,2-2.6v-2.8c-1.3-0.2-2.5-0.8-3.4-1.8l-4.2,2.6c0,0.2,0,0.3,0,0.5c0,1.5-1.2,2.7-2.7,2.7
			s-2.7-1.2-2.7-2.7c0-1.5,1.2-2.7,2.7-2.7c0.8,0,1.6,0.4,2.1,0.9l4-2.5c-0.4-0.7-0.6-1.6-0.6-2.5c0-0.6,0.1-1.2,0.3-1.7l-3.7-1.8
			c-0.5,0.5-1.2,0.8-2,0.8c-1.5,0-2.7-1.2-2.7-2.7s1.2-2.7,2.7-2.7s2.7,1.2,2.7,2.7c0,0.2,0,0.5-0.1,0.7l3.7,1.8
			c0.8-1.3,2.3-2.3,3.9-2.5v-2.8c-1.2-0.3-2-1.4-2-2.6C20.7,9.1,21.9,7.9,23.4,7.9 M23.4,31c-0.7,0-1.4,0.6-1.4,1.4
			c0,0.7,0.6,1.4,1.4,1.4s1.4-0.6,1.4-1.4C24.7,31.6,24.1,31,23.4,31 M12.5,26.9c-0.7,0-1.4,0.6-1.4,1.4c0,0.7,0.6,1.4,1.4,1.4
			s1.4-0.6,1.4-1.4C13.9,27.5,13.3,26.9,12.5,26.9 M34.3,26.9c-0.7,0-1.4,0.6-1.4,1.4c0,0.7,0.6,1.4,1.4,1.4s1.4-0.6,1.4-1.4
			C35.6,27.5,35,26.9,34.3,26.9 M23.4,18.8c-1.5,0-2.7,1.2-2.7,2.7c0,1.5,1.2,2.7,2.7,2.7c1.5,0,2.7-1.2,2.7-2.7
			C26.1,20,24.9,18.8,23.4,18.8 M12.5,14.7c-0.7,0-1.4,0.6-1.4,1.4c0,0.7,0.6,1.4,1.4,1.4s1.4-0.6,1.4-1.4
			C13.9,15.3,13.3,14.7,12.5,14.7 M34.3,14.7c-0.7,0-1.4,0.6-1.4,1.4c0,0.7,0.6,1.4,1.4,1.4s1.4-0.6,1.4-1.4
			C35.6,15.3,35,14.7,34.3,14.7 M23.4,9.3c-0.7,0-1.4,0.6-1.4,1.4c0,0.7,0.6,1.4,1.4,1.4c0.7,0,1.4-0.6,1.4-1.4
			C24.8,9.9,24.2,9.3,23.4,9.3"/>
	</g>
</g>
<g>
	<defs>
		<path id="SVGID_00000022561488470197357680000005681014469356134066_" d="M22,32.3c0-0.7,0.6-1.4,1.4-1.4c0.7,0,1.4,0.6,1.4,1.4
			c0,0.7-0.6,1.4-1.4,1.4C22.6,33.7,22,33.1,22,32.3 M11.2,28.3c0-0.7,0.6-1.4,1.4-1.4s1.4,0.6,1.4,1.4c0,0.7-0.6,1.4-1.4,1.4
			S11.2,29,11.2,28.3 M32.9,28.3c0-0.7,0.6-1.4,1.4-1.4s1.4,0.6,1.4,1.4c0,0.7-0.6,1.4-1.4,1.4S32.9,29,32.9,28.3 M20.7,21.5
			c0-1.5,1.2-2.7,2.7-2.7s2.7,1.2,2.7,2.7c0,1.5-1.2,2.7-2.7,2.7C21.9,24.2,20.7,23,20.7,21.5 M11.2,16c0-0.7,0.6-1.4,1.4-1.4
			c0.7,0,1.4,0.6,1.4,1.4c0,0.7-0.6,1.4-1.4,1.4C11.8,17.4,11.2,16.8,11.2,16 M32.9,16c0-0.7,0.6-1.4,1.4-1.4s1.4,0.6,1.4,1.4
			c0,0.7-0.6,1.4-1.4,1.4S32.9,16.8,32.9,16 M22.1,10.6c0-0.7,0.6-1.4,1.4-1.4c0.7,0,1.4,0.6,1.4,1.4c0,0.7-0.6,1.4-1.4,1.4
			C22.7,12,22.1,11.4,22.1,10.6 M20.7,10.6c0,1.3,0.9,2.3,2,2.6v2.8c-1.6,0.2-3,1.1-3.9,2.5l-3.7-1.8c0.1-0.2,0.1-0.5,0.1-0.7
			c0-1.5-1.2-2.7-2.7-2.7s-2.7,1.2-2.7,2.7c0,1.5,1.2,2.7,2.7,2.7c0.8,0,1.5-0.3,2-0.8l3.7,1.8c-0.2,0.5-0.3,1.1-0.3,1.7
			c0,0.9,0.2,1.8,0.6,2.5l-4,2.5c-0.5-0.6-1.2-0.9-2.1-0.9c-1.5,0-2.7,1.2-2.7,2.7S11,31,12.5,31s2.7-1.2,2.7-2.7c0-0.2,0-0.4,0-0.5
			l4.2-2.6c0.8,0.9,2,1.6,3.4,1.8v2.8c-1.2,0.3-2,1.4-2,2.6c0,1.3,0.9,2.4,2.2,2.7h1c1.3-0.2,2.2-1.3,2.2-2.7c0-1.3-0.9-2.3-2-2.6
			v-2.8c1.3-0.2,2.5-0.8,3.3-1.7l4.2,2.4c-0.1,0.2-0.1,0.5-0.1,0.7c0,1.5,1.2,2.7,2.7,2.7c1.1,0,2-0.6,2.4-1.5v-2.4
			c-0.4-0.9-1.4-1.5-2.4-1.5c-0.8,0-1.4,0.3-1.9,0.8l-4.1-2.3c0.4-0.8,0.6-1.6,0.6-2.6c0-0.5-0.1-0.9-0.2-1.4l3.7-2.1
			c0.5,0.5,1.2,0.8,1.9,0.8c1.1,0,2-0.6,2.4-1.5v-2.4c-0.4-0.9-1.4-1.5-2.4-1.5c-1.5,0-2.7,1.2-2.7,2.7c0,0.3,0,0.5,0.1,0.7l-3.5,2
			c-0.8-1.5-2.3-2.5-4-2.7v-2.8c1.2-0.3,2-1.4,2-2.6c0-1.5-1.2-2.7-2.7-2.7C21.9,7.9,20.7,9.2,20.7,10.6"/>
	</defs>
	<clipPath id="SVGID_00000152957396439387095300000001161693211940647098_">
		<use xlink:href="#SVGID_00000022561488470197357680000005681014469356134066_"  style="overflow:visible;"/>
	</clipPath>
	<g style="clip-path:url(#SVGID_00000152957396439387095300000001161693211940647098_);">
		<path class="st4" d="M19.4,6.6c0,1.8-1.5,3.3-3.3,3.3s-3.3-1.5-3.3-3.3s1.5-3.3,3.3-3.3S19.4,4.8,19.4,6.6"/>
	</g>
</g>
</svg>
