<?xml version="1.0" encoding="UTF-8"?>
<svg id="uuid-b7869e77-19f1-4e5f-a9c0-9a100d49174c" xmlns="http://www.w3.org/2000/svg" version="1.1" viewBox="0 0 48.3 52.7">
  <!-- Generator: Adobe Illustrator 29.1.0, SVG Export Plug-In . SVG Version: 2.1.0 Build 142)  -->
  <path d="M35,27.9c-.7-2.8-2-5-3.7-6.4-.1-1.3-1.3-2.4-2.6-2.4s-.8.1-1.2.3c-6.3-1.9-14.2,1.8-15.2,9.1,0,.4.5.5.6.1,1.7-5.6,8.1-8.2,13.2-6.6.1,1.3,1.3,2.4,2.6,2.4s.7,0,1-.2c1.1,1.1,2,2.5,2.6,4.3,0,.2.3.4.5.3.5,0,1.2-.2,1.7-.3.3,0,.5-.3.4-.6ZM28.6,23.4c-.7,0-1.2-.4-1.5-1-.1-.2-.1-.4-.1-.7,0-.9.7-1.6,1.6-1.6s1.6.7,1.6,1.6-.7,1.6-1.5,1.6c0,0,0,0,0,0Z"/>
  <path d="M12.1,29.9c0,0-.2-.2-.3-.2-.1,0-.2,0-.3,0s-.2,0-.3,0c0,0-.2.1-.2.2s-.1.2-.2.4c0,.1,0,.3,0,.5s0,.4,0,.5.1.2.2.3c0,.1.2.2.2.2.1,0,.2,0,.3,0s.2,0,.3,0c.1,0,.2-.1.3-.2,0,0,.1-.2.2-.3,0-.1,0-.3,0-.5s0-.4,0-.5c0-.1,0-.3-.2-.4ZM11.9,31.1c0,.1,0,.2,0,.2,0,0,0,.1-.1.1,0,0,0,0-.1,0s0,0-.1,0c0,0,0,0-.1-.1,0,0,0-.1,0-.2,0-.1,0-.2,0-.4s0-.3,0-.4c0-.1,0-.2,0-.2,0,0,0,0,.1-.1,0,0,0,0,.1,0s.1,0,.1,0c0,0,0,0,.1.1,0,0,0,.1,0,.2s0,.2,0,.4,0,.3,0,.4Z"/>
  <path d="M14.1,29.7s0,0,0,0l-.5,1.3s0,0,0,.1,0,.1,0,.2c0,0,0-.1,0-.2,0,0,0-.1,0-.1l-.5-1.3s0,0,0,0c0,0,0,0,0,0h-.3l.9,2.2h.4l.9-2.2h-.3s0,0,0,0Z"/>
  <path d="M32.5,29.6h-.3l-.7.6v.2c.1,0,.1,0,.2,0s0,0,0,0h0s0,0,0,0l.3-.2h0c0,0,0,.1,0,.2v1.2h-.4v.3h1.2v-.3h-.4s0-1.9,0-1.9Z"/>
  <path d="M34.5,29.9c0,0-.2-.2-.2-.2,0,0-.2,0-.3,0s-.2,0-.3,0c0,0-.2.1-.2.2,0,0-.1.2-.2.4,0,.1,0,.3,0,.5s0,.4,0,.5,0,.2.2.3c0,.1.2.2.2.2,0,0,.2,0,.3,0s.2,0,.3,0c0,0,.2-.1.2-.2,0,0,.1-.2.2-.3,0-.1,0-.3,0-.5s0-.4,0-.5,0-.3-.2-.4ZM34.3,31.1c0,.1,0,.2,0,.2,0,0,0,.1-.1.1,0,0,0,0-.1,0s0,0-.1,0c0,0,0,0-.1-.1,0,0,0-.1,0-.2s0-.2,0-.4,0-.3,0-.4c0-.1,0-.2,0-.2,0,0,0,0,.1-.1,0,0,0,0,.1,0s0,0,.1,0c0,0,0,0,.1.1,0,0,0,.1,0,.2s0,.2,0,.4,0,.3,0,.4Z"/>
  <path d="M36.6,29.7s0,0,0,0c0,0,0,0,0,0l-.5,1.3s0,0,0,.1c0,0,0,.1,0,.2,0,0,0-.1,0-.2,0,0,0-.1,0-.1l-.5-1.3s0,0,0,0c0,0,0,0,0,0h-.3l.9,2.2h.4l.9-2.2h-.3Z"/>
</svg>