<?xml version="1.0" encoding="UTF-8"?>
<svg id="uuid-f022624b-88fa-40a9-9864-818792d22cc9" xmlns="http://www.w3.org/2000/svg" version="1.1" viewBox="0 0 48.3 52.7">
  <!-- Generator: Adobe Illustrator 29.1.0, SVG Export Plug-In . SVG Version: 2.1.0 Build 142)  -->
  <defs>
    <style>
      .st0 {
        fill-rule: evenodd;
      }
    </style>
  </defs>
  <path d="M20.3,39.2c-.5,0-1,0-1.5-.2-2.7-.6-4.9-2.8-5.4-5.5h0c-.3-1.4-.1-2.9.4-4.2,1.2-2.8,1.8-5.4,1.8-7.9v-1.8c0-1.2.5-2.1,1.4-2.5,1.9-.9,4-.9,6.3,0,.9.4,1.5,1.3,1.5,2.3v2c0,2.5.6,5.1,1.8,7.8.4.9.6,1.9.6,2.9,0,2.1-1,4.1-2.6,5.5-1.3,1-2.8,1.6-4.5,1.6h0ZM20,17.5c-.9,0-1.7.2-2.5.6-.7.3-.8,1.1-.8,1.6v1.8c0,2.6-.6,5.3-1.9,8.2-.5,1.1-.6,2.4-.4,3.6h0c.4,2.3,2.3,4.2,4.6,4.7,1.8.4,3.7,0,5.1-1.2s2.2-2.9,2.2-4.7-.2-1.7-.5-2.5c-1.2-2.8-1.9-5.5-1.9-8.2v-2c0-.6-.4-1.2-.9-1.4-1.1-.4-2-.6-3-.6h0Z"/>
  <g>
    <path d="M20.3,35.9c-2.3,0-4.2-1.9-4.2-4.2s1.9-4.2,4.2-4.2,4.2,1.9,4.2,4.2-1.9,4.2-4.2,4.2ZM20.3,28.5c-1.8,0-3.2,1.4-3.2,3.2s1.4,3.2,3.2,3.2,3.2-1.4,3.2-3.2-1.4-3.2-3.2-3.2Z"/>
    <g>
      <path d="M19.5,21.3h-.4v-1.4h2.4v.5h-2s0,.9,0,.9Z"/>
      <path d="M19.5,22.5c0,0,0,.1,0,.2,0,0,0,.1.1.1s.1,0,.2,0,.1,0,.2,0h1.4v.5h-1.4c-.1,0-.3,0-.4,0s-.2-.1-.3-.2c0,0-.2-.2-.2-.3,0-.1,0-.3,0-.4s0-.3,0-.4c0-.1.1-.2.2-.3,0,0,.2-.2.3-.2.1,0,.3,0,.4,0h1.4v.5h-1.4c0,0-.2,0-.2,0s-.1,0-.2,0,0,0-.1.1c0,0,0,.1,0,.2Z"/>
      <path d="M19.1,26v-.5s0,0,0,0c0,0,0,0,0,0l.8-.5s0,0,0,0l-.8-.5s0,0,0,0,0,0,0,0v-.5l1.2.8,1.2-.7v.6s0,0,0,0c0,0,0,0,0,0l-.8.5s0,0,0,0c0,0,0,0,0,0l.7.4s0,0,0,0c0,0,0,0,0,0v.5l-1.1-.8-1.2.8h0Z"/>
    </g>
  </g>
  <g>
    <path class="st0" d="M29.3,20.2c-1.8,0-3.2,1.5-3.2,3.3s1.4,3.3,3.2,3.3,3.2-1.5,3.2-3.3-1.4-3.3-3.2-3.3ZM29.3,25.6c-1.1,0-2.1-1-2.1-2.2s.9-2.2,2.1-2.2,2.1,1,2.1,2.2-.9,2.2-2.1,2.2Z"/>
    <path class="st0" d="M28.7,17c0-.3.3-.5.5-.5s.6.2.6.6v1.9c0,.3-.3.5-.6.5s-.6-.2-.6-.6v-1.9h0Z"/>
    <path class="st0" d="M29.2,27.7c-.3,0-.5.2-.5.5h0v1.9c0,.3.2.6.6.6s.5-.2.5-.5h0v-1.9c0-.3-.2-.6-.6-.6Z"/>
    <path class="st0" d="M33.6,24c-.3,0-.5-.3-.5-.5s.2-.6.6-.6h1.8c.3,0,.5.3.5.6s-.2.6-.6.6h-1.8Z"/>
    <path class="st0" d="M34.7,17.9c-.2-.2-.5-.2-.7,0h0c0,0-1.2,1.4-1.2,1.4-.2.2-.2.6,0,.8.2.2.5.2.7,0h0c0,0,1.2-1.4,1.2-1.4.2-.2.2-.6,0-.8Z"/>
    <path class="st0" d="M32.7,26.9c.2-.2.6-.2.8,0l1.2,1.3h0c.2.3.1.6,0,.8-.2.2-.6.2-.8,0l-1.2-1.3h0c-.2-.3-.1-.6,0-.8h0Z"/>
  </g>
</svg>