<?xml version="1.0" encoding="UTF-8"?><svg id="Warstwa_1" xmlns="http://www.w3.org/2000/svg" xmlns:xlink="http://www.w3.org/1999/xlink" viewBox="0 0 46.21 42.93"><defs><style>.cls-1{fill:#fff;}.cls-2{clip-path:url(#clippath-1);}.cls-3{fill:#2699d6;}.cls-4{fill:#1c98d5;}.cls-5{clip-path:url(#clippath);}.cls-6{fill:none;}</style><clipPath id="clippath"><rect class="cls-6" x="3.73" y="5.39" width="32.97" height="32.97"/></clipPath><clipPath id="clippath-1"><path class="cls-6" d="m19.35,30.58c0-.6.49-1.09,1.09-1.09s1.09.49,1.09,1.09-.49,1.09-1.09,1.09-1.09-.49-1.09-1.09m-8.7-3.26c0-.6.49-1.09,1.09-1.09s1.09.49,1.09,1.09-.49,1.09-1.09,1.09-1.09-.49-1.09-1.09m17.41,0c0-.6.49-1.09,1.09-1.09s1.09.49,1.09,1.09-.49,1.09-1.09,1.09-1.09-.49-1.09-1.09m-9.79-5.44c0-1.2.98-2.18,2.18-2.18s2.18.98,2.18,2.18-.97,2.18-2.18,2.18-2.18-.97-2.18-2.18m-7.61-4.35c0-.6.49-1.09,1.09-1.09s1.09.49,1.09,1.09-.49,1.09-1.09,1.09-1.09-.49-1.09-1.09m17.41,0c0-.6.49-1.09,1.09-1.09s1.09.49,1.09,1.09-.49,1.09-1.09,1.09-1.09-.49-1.09-1.09m-8.7-4.35c0-.6.49-1.09,1.09-1.09s1.09.49,1.09,1.09-.49,1.09-1.09,1.09-1.09-.49-1.09-1.09m-1.09,0c0,1.01.69,1.86,1.63,2.11v2.28c-1.31.16-2.44.91-3.12,1.97l-2.93-1.44c.05-.18.07-.37.07-.56,0-1.2-.97-2.18-2.18-2.18s-2.18.97-2.18,2.18.98,2.18,2.18,2.18c.61,0,1.17-.25,1.57-.66l3,1.48c-.14.43-.22.89-.22,1.36,0,.72.18,1.41.49,2.01l-3.19,2.02c-.4-.47-.99-.76-1.65-.76-1.2,0-2.18.98-2.18,2.18s.98,2.18,2.18,2.18,2.18-.97,2.18-2.18c0-.15-.02-.29-.04-.43l3.33-2.1c.68.76,1.63,1.28,2.7,1.41v2.28c-.94.24-1.63,1.09-1.63,2.11s.76,1.95,1.77,2.14h.81c1.01-.19,1.77-1.07,1.77-2.14s-.69-1.86-1.63-2.11v-2.28c1.05-.13,1.98-.64,2.67-1.38l3.4,1.92c-.05.19-.08.38-.08.58,0,1.2.97,2.18,2.18,2.18.85,0,1.59-.49,1.95-1.21v-1.93c-.36-.72-1.09-1.21-1.95-1.21-.61,0-1.16.25-1.55.65l-3.31-1.87c.33-.61.51-1.31.51-2.05,0-.39-.05-.76-.15-1.12l2.95-1.7c.4.4.94.65,1.55.65.85,0,1.59-.49,1.95-1.21v-1.94c-.36-.72-1.09-1.21-1.95-1.21-1.2,0-2.18.97-2.18,2.18,0,.21.03.4.08.59l-2.82,1.62c-.66-1.17-1.85-2-3.24-2.18v-2.28c.94-.24,1.63-1.09,1.63-2.1,0-1.2-.97-2.18-2.18-2.18s-2.18.98-2.18,2.18"/></clipPath></defs><g class="cls-5"><path class="cls-3" d="m36.7,21.88c0,9.1-7.38,16.49-16.49,16.49S3.73,30.98,3.73,21.88,11.11,5.39,20.21,5.39s16.49,7.38,16.49,16.49"/><path class="cls-1" d="m20.44,11c1.2,0,2.18.97,2.18,2.17,0,1.01-.69,1.87-1.63,2.11v2.28c1.39.17,2.58,1.01,3.24,2.18l2.82-1.62c-.05-.19-.08-.39-.08-.59,0-1.2.97-2.18,2.18-2.18s2.18.97,2.18,2.18-.97,2.17-2.18,2.17c-.6,0-1.15-.25-1.54-.64l-2.95,1.7c.09.36.15.73.15,1.12,0,.74-.19,1.44-.51,2.05l3.31,1.87c.39-.4.94-.65,1.55-.65,1.2,0,2.18.97,2.18,2.18s-.97,2.17-2.18,2.17-2.18-.97-2.18-2.17c0-.2.03-.4.08-.59l-3.4-1.92c-.68.74-1.61,1.25-2.66,1.38v2.28c.94.24,1.63,1.09,1.63,2.11,0,1.2-.98,2.18-2.18,2.18s-2.18-.97-2.18-2.18c0-1.01.69-1.87,1.63-2.11v-2.28c-1.07-.13-2.01-.65-2.7-1.41l-3.33,2.1c.03.14.04.28.04.43,0,1.2-.97,2.17-2.18,2.17s-2.17-.97-2.17-2.17.97-2.18,2.17-2.18c.66,0,1.25.29,1.65.76l3.19-2.02c-.31-.6-.49-1.28-.49-2.01,0-.48.08-.93.22-1.36l-3-1.47c-.4.41-.95.66-1.57.66-1.2,0-2.17-.97-2.17-2.17s.97-2.18,2.17-2.18,2.18.97,2.18,2.18c0,.19-.03.38-.07.56l2.93,1.44c.68-1.06,1.81-1.81,3.12-1.97v-2.28c-.94-.24-1.63-1.09-1.63-2.11,0-1.2.98-2.17,2.18-2.17m0,18.49c-.6,0-1.09.49-1.09,1.09s.49,1.09,1.09,1.09,1.09-.49,1.09-1.09-.49-1.09-1.09-1.09m-8.7-3.26c-.6,0-1.09.49-1.09,1.09s.49,1.09,1.09,1.09,1.09-.49,1.09-1.09-.49-1.09-1.09-1.09m17.41,0c-.6,0-1.09.49-1.09,1.09s.49,1.09,1.09,1.09,1.09-.49,1.09-1.09-.49-1.09-1.09-1.09m-8.7-6.53c-1.2,0-2.18.97-2.18,2.18s.98,2.18,2.18,2.18,2.18-.98,2.18-2.18-.98-2.18-2.18-2.18m-8.7-3.26c-.6,0-1.09.49-1.09,1.09s.49,1.09,1.09,1.09,1.09-.49,1.09-1.09-.49-1.09-1.09-1.09m17.41,0c-.6,0-1.09.49-1.09,1.09s.49,1.09,1.09,1.09,1.09-.49,1.09-1.09-.49-1.09-1.09-1.09m-8.7-4.35c-.6,0-1.09.49-1.09,1.09s.49,1.09,1.09,1.09,1.09-.49,1.09-1.09-.49-1.09-1.09-1.09"/></g><g class="cls-2"><path class="cls-4" d="m17.28,9.92c0,1.44-1.17,2.61-2.61,2.61s-2.61-1.17-2.61-2.61,1.17-2.61,2.61-2.61,2.61,1.17,2.61,2.61"/></g></svg>