<?xml version="1.0" encoding="UTF-8"?><svg id="Warstwa_1" xmlns="http://www.w3.org/2000/svg" viewBox="0 0 40.18 37.32"><defs><style>.cls-1{fill:#f6f9fe;fill-rule:evenodd;}.cls-2{fill:#2699d6;}</style></defs><path class="cls-2" d="m3.85,18.66C3.85,9.69,11.12,2.41,20.09,2.41s16.25,7.27,16.25,16.24-7.27,16.25-16.25,16.25S3.85,27.63,3.85,18.66"/><path class="cls-1" d="m24.44,7.28c-.19-.19-.5-.19-.69,0-4.09,3.88-6.16,6.97-6.16,9.36,0,.83.16,1.62.44,2.34-.34.23-.64.53-.86.9-.11.18-.26.33-.43.43-.59.36-1.36.16-1.72-.43-.11-.19-.25-.37-.41-.53-1.09-1.09-2.85-1.09-3.93,0l-.94.94-.06.07c-.13.19-.11.46.06.63.2.2.51.2.71,0l.94-.93.12-.11c.69-.59,1.73-.55,2.39.11.1.1.19.21.27.34l.08.13c.67.96,1.98,1.25,3,.64.32-.19.58-.46.77-.77l.09-.13c.1-.14.22-.27.36-.37,1.12,1.94,3.22,3.24,5.62,3.24,3.59,0,6.5-2.91,6.5-6.5,0-2.39-2.06-5.48-6.15-9.36Zm-.35,14.86c-1.97,0-3.7-1.04-4.67-2.6.35-.03.72.05,1.04.25.13.07.24.16.34.27l.94.93.07.06c.2.14.46.12.64-.06.19-.19.19-.51,0-.7l-.94-.94-.17-.16c-.11-.09-.24-.18-.36-.26-.64-.38-1.36-.48-2.03-.33-.23-.61-.36-1.27-.36-1.96,0-1.91,1.73-4.61,5.2-8.01l.3-.3.31.3c3.47,3.4,5.19,6.1,5.19,8.01,0,3.04-2.46,5.5-5.5,5.5Z"/><path class="cls-1" d="m14.61,23.35c-1.08-1.08-2.84-1.08-3.93,0l-.94.94-.06.07c-.13.19-.12.46.06.64.2.2.51.2.71,0l.94-.94.12-.11c.7-.58,1.74-.55,2.39.11.1.1.19.22.27.34l.09.13c.67.96,1.98,1.25,3,.64.32-.19.58-.45.77-.77l.08-.13c.53-.74,1.56-.96,2.35-.48.12.07.24.16.34.27l.94.94.07.06c.19.14.46.12.64-.06.2-.2.2-.51,0-.71l-.94-.94-.17-.15c-.12-.1-.24-.19-.37-.26-1.31-.79-3.02-.36-3.81.95-.11.18-.25.32-.43.43-.59.35-1.36.16-1.71-.43-.12-.19-.26-.37-.42-.53Z"/><path class="cls-1" d="m14.61,26.95c-1.08-1.08-2.84-1.08-3.93,0l-.94.94-.06.07c-.13.19-.12.46.06.64.2.2.51.2.71,0l.94-.94.12-.11c.7-.58,1.74-.55,2.39.11.1.1.19.22.27.34l.09.13c.67.96,1.98,1.25,3,.64.32-.19.58-.45.77-.77l.08-.13c.53-.74,1.56-.96,2.35-.48.12.07.24.16.34.27l.94.94.07.06c.19.14.46.12.64-.06.2-.2.2-.51,0-.71l-.94-.94-.17-.15c-.12-.1-.24-.19-.37-.26-1.31-.79-3.02-.36-3.81.95-.11.18-.25.32-.43.43-.59.35-1.36.16-1.71-.43-.12-.19-.26-.37-.42-.53Z"/></svg>