<?xml version="1.0" encoding="utf-8"?>
<!-- Generator: Adobe Illustrator 28.1.0, SVG Export Plug-In . SVG Version: 6.00 Build 0)  -->
<svg version="1.1" id="Warstwa_1" xmlns="http://www.w3.org/2000/svg" xmlns:xlink="http://www.w3.org/1999/xlink" x="0px" y="0px"
	 viewBox="0 0 40.2 37.3" style="enable-background:new 0 0 40.2 37.3;" xml:space="preserve">
<style type="text/css">
	.st0{display:none;fill:#2699D6;}
	.st1{fill-rule:evenodd;clip-rule:evenodd;}
</style>
<path class="st0" d="M3.8,18.7c0-9,7.3-16.2,16.2-16.2s16.2,7.3,16.2,16.2s-7.3,16.3-16.2,16.3S3.8,27.6,3.8,18.7"/>
<path class="st1" d="M27.3,0.6c-0.3-0.3-0.8-0.3-1.2,0c-6.8,6.5-10.3,11.6-10.3,15.6c0,1.4,0.3,2.7,0.7,3.9
	c-0.6,0.4-1.1,0.9-1.4,1.5c-0.2,0.3-0.4,0.6-0.7,0.7c-1,0.6-2.3,0.3-2.9-0.7c-0.2-0.3-0.4-0.6-0.7-0.9c-1.8-1.8-4.8-1.8-6.6,0
	l-1.6,1.6l-0.1,0.1c-0.2,0.3-0.2,0.8,0.1,1.1c0.3,0.3,0.9,0.3,1.2,0l1.6-1.6l0.2-0.2c1.2-1,2.9-0.9,4,0.2c0.2,0.2,0.3,0.4,0.5,0.6
	l0.1,0.2c1.1,1.6,3.3,2.1,5,1.1c0.5-0.3,1-0.8,1.3-1.3l0.2-0.2c0.2-0.2,0.4-0.5,0.6-0.6c1.9,3.2,5.4,5.4,9.4,5.4
	c6,0,10.8-4.9,10.8-10.8C37.6,12.2,34.2,7.1,27.3,0.6z M26.8,25.4c-3.3,0-6.2-1.7-7.8-4.3c0.6-0.1,1.2,0.1,1.7,0.4
	c0.2,0.1,0.4,0.3,0.6,0.5l1.6,1.6l0.1,0.1c0.3,0.2,0.8,0.2,1.1-0.1c0.3-0.3,0.3-0.9,0-1.2l-1.6-1.6l-0.3-0.3
	c-0.2-0.2-0.4-0.3-0.6-0.4c-1.1-0.6-2.3-0.8-3.4-0.6c-0.4-1-0.6-2.1-0.6-3.3c0-3.2,2.9-7.7,8.7-13.4l0.5-0.5l0.5,0.5
	c5.8,5.7,8.7,10.2,8.7,13.4C35.9,21.3,31.8,25.4,26.8,25.4z"/>
<path class="st1" d="M11,27.4c-1.8-1.8-4.7-1.8-6.6,0L2.8,29l-0.1,0.1c-0.2,0.3-0.2,0.8,0.1,1.1c0.3,0.3,0.9,0.3,1.2,0l1.6-1.6
	l0.2-0.2c1.2-1,2.9-0.9,4,0.2c0.2,0.2,0.3,0.4,0.5,0.6l0.2,0.2c1.1,1.6,3.3,2.1,5,1.1c0.5-0.3,1-0.8,1.3-1.3l0.1-0.2
	c0.9-1.2,2.6-1.6,3.9-0.8c0.2,0.1,0.4,0.3,0.6,0.5l1.6,1.6l0.1,0.1c0.3,0.2,0.8,0.2,1.1-0.1c0.3-0.3,0.3-0.9,0-1.2l-1.6-1.6
	l-0.3-0.3c-0.2-0.2-0.4-0.3-0.6-0.4c-2.2-1.3-5-0.6-6.4,1.6c-0.2,0.3-0.4,0.5-0.7,0.7c-1,0.6-2.3,0.3-2.9-0.7
	C11.4,28,11.2,27.7,11,27.4L11,27.4z"/>
<path class="st1" d="M11,33.4c-1.8-1.8-4.7-1.8-6.6,0L2.8,35l-0.1,0.1c-0.2,0.3-0.2,0.8,0.1,1.1c0.3,0.3,0.9,0.3,1.2,0l1.6-1.6
	l0.2-0.2c1.2-1,2.9-0.9,4,0.2c0.2,0.2,0.3,0.4,0.5,0.6l0.2,0.2c1.1,1.6,3.3,2.1,5,1.1c0.5-0.3,1-0.8,1.3-1.3l0.1-0.2
	c0.9-1.2,2.6-1.6,3.9-0.8c0.2,0.1,0.4,0.3,0.6,0.5l1.6,1.6l0.1,0.1c0.3,0.2,0.8,0.2,1.1-0.1c0.3-0.3,0.3-0.9,0-1.2l-1.6-1.6
	l-0.3-0.3c-0.2-0.2-0.4-0.3-0.6-0.4c-2.2-1.3-5-0.6-6.4,1.6c-0.2,0.3-0.4,0.5-0.7,0.7c-1,0.6-2.3,0.3-2.9-0.7
	C11.4,34,11.2,33.7,11,33.4L11,33.4z"/>
</svg>
